%TF.GenerationSoftware,KiCad,Pcbnew,(5.1.8)-1*%
%TF.CreationDate,2020-11-22T17:52:55+01:00*%
%TF.ProjectId,dcconverter,6463636f-6e76-4657-9274-65722e6b6963,rev?*%
%TF.SameCoordinates,Original*%
%TF.FileFunction,Copper,L1,Top*%
%TF.FilePolarity,Positive*%
%FSLAX46Y46*%
G04 Gerber Fmt 4.6, Leading zero omitted, Abs format (unit mm)*
G04 Created by KiCad (PCBNEW (5.1.8)-1) date 2020-11-22 17:52:55*
%MOMM*%
%LPD*%
G01*
G04 APERTURE LIST*
%TA.AperFunction,ComponentPad*%
%ADD10C,10.000000*%
%TD*%
%TA.AperFunction,WasherPad*%
%ADD11C,2.400000*%
%TD*%
%TA.AperFunction,ComponentPad*%
%ADD12O,1.727200X1.727200*%
%TD*%
%TA.AperFunction,ComponentPad*%
%ADD13R,1.727200X1.727200*%
%TD*%
%TA.AperFunction,ComponentPad*%
%ADD14O,1.600000X1.600000*%
%TD*%
%TA.AperFunction,ComponentPad*%
%ADD15C,1.600000*%
%TD*%
%TA.AperFunction,ComponentPad*%
%ADD16C,1.500000*%
%TD*%
%TA.AperFunction,ComponentPad*%
%ADD17O,1.905000X2.000000*%
%TD*%
%TA.AperFunction,ComponentPad*%
%ADD18C,1.905000*%
%TD*%
%TA.AperFunction,ComponentPad*%
%ADD19O,2.500000X4.500000*%
%TD*%
%TA.AperFunction,ComponentPad*%
%ADD20O,2.000000X1.905000*%
%TD*%
%TA.AperFunction,ComponentPad*%
%ADD21O,4.500000X2.500000*%
%TD*%
%TA.AperFunction,ComponentPad*%
%ADD22C,5.000000*%
%TD*%
%TA.AperFunction,ComponentPad*%
%ADD23C,2.000000*%
%TD*%
%TA.AperFunction,WasherPad*%
%ADD24C,1.524000*%
%TD*%
%TA.AperFunction,ComponentPad*%
%ADD25C,4.000000*%
%TD*%
%TA.AperFunction,ComponentPad*%
%ADD26C,2.500000*%
%TD*%
%TA.AperFunction,ComponentPad*%
%ADD27R,2.000000X1.905000*%
%TD*%
%TA.AperFunction,ComponentPad*%
%ADD28C,3.000000*%
%TD*%
%TA.AperFunction,ComponentPad*%
%ADD29O,2.800000X2.800000*%
%TD*%
%TA.AperFunction,ComponentPad*%
%ADD30C,2.800000*%
%TD*%
%TA.AperFunction,ComponentPad*%
%ADD31O,2.200000X2.200000*%
%TD*%
%TA.AperFunction,ComponentPad*%
%ADD32R,2.200000X2.200000*%
%TD*%
%TA.AperFunction,ComponentPad*%
%ADD33R,4.500000X2.500000*%
%TD*%
%TA.AperFunction,ComponentPad*%
%ADD34R,1.600000X1.600000*%
%TD*%
%TA.AperFunction,ComponentPad*%
%ADD35C,1.800000*%
%TD*%
%TA.AperFunction,ComponentPad*%
%ADD36R,1.800000X1.800000*%
%TD*%
%TA.AperFunction,Conductor*%
%ADD37C,2.000000*%
%TD*%
%TA.AperFunction,Conductor*%
%ADD38C,1.000000*%
%TD*%
G04 APERTURE END LIST*
D10*
%TO.P,REF\u002A\u002A,1*%
%TO.N,N/C*%
X168500000Y-108500000D03*
%TD*%
%TO.P,REF\u002A\u002A,1*%
%TO.N,N/C*%
X21500000Y-108500000D03*
%TD*%
%TO.P,REF\u002A\u002A,1*%
%TO.N,N/C*%
X21500000Y-21500000D03*
%TD*%
D11*
%TO.P,HS-Q2,*%
%TO.N,*%
X106990000Y-61215000D03*
X106990000Y-89015000D03*
%TD*%
%TO.P,HS-Q1,*%
%TO.N,*%
X90830000Y-61405000D03*
X90830000Y-89205000D03*
%TD*%
%TO.P,HS-IC1,*%
%TO.N,*%
X106990000Y-21825000D03*
X106990000Y-49625000D03*
%TD*%
%TO.P,HS-D1,*%
%TO.N,*%
X90855000Y-21745000D03*
X90855000Y-49545000D03*
%TD*%
D12*
%TO.P,XA1,MISO*%
%TO.N,N/C*%
X60520000Y-101120000D03*
%TO.P,XA1,A5*%
X42740000Y-101120000D03*
%TO.P,XA1,A4*%
X40200000Y-101120000D03*
%TO.P,XA1,A3*%
X37660000Y-101120000D03*
%TO.P,XA1,A2*%
X35120000Y-101120000D03*
%TO.P,XA1,A1*%
%TO.N,Net-(R12-Pad1)*%
X32580000Y-101120000D03*
%TO.P,XA1,*%
%TO.N,*%
X47820000Y-101120000D03*
%TO.P,XA1,D11*%
%TO.N,Net-(R11-Pad2)*%
X24960000Y-85880000D03*
%TO.P,XA1,D12*%
%TO.N,Net-(R8-Pad2)*%
X22420000Y-85880000D03*
%TO.P,XA1,D13*%
%TO.N,Net-(R7-Pad2)*%
X22420000Y-101120000D03*
%TO.P,XA1,AREF*%
%TO.N,N/C*%
X27500000Y-101120000D03*
%TO.P,XA1,D10*%
X27500000Y-85880000D03*
%TO.P,XA1,D9*%
X30040000Y-85880000D03*
%TO.P,XA1,D8*%
X32580000Y-85880000D03*
%TO.P,XA1,D7*%
X35120000Y-85880000D03*
%TO.P,XA1,D6*%
X37660000Y-85880000D03*
%TO.P,XA1,D5*%
X40200000Y-85880000D03*
%TO.P,XA1,D4*%
X42740000Y-85880000D03*
%TO.P,XA1,D3*%
X45280000Y-85880000D03*
%TO.P,XA1,D2*%
X47820000Y-85880000D03*
%TO.P,XA1,D1*%
X57980000Y-85880000D03*
%TO.P,XA1,D0*%
X55440000Y-85880000D03*
%TO.P,XA1,SS*%
X60520000Y-85880000D03*
%TO.P,XA1,RST1*%
X52900000Y-101120000D03*
%TO.P,XA1,3V3*%
X24960000Y-101120000D03*
%TO.P,XA1,5V*%
%TO.N,Net-(IC1-Pad3)*%
X50360000Y-101120000D03*
%TO.P,XA1,GND1*%
%TO.N,Net-(C1-Pad2)*%
X55440000Y-101120000D03*
%TO.P,XA1,GND2*%
%TO.N,N/C*%
X50360000Y-85880000D03*
%TO.P,XA1,VIN*%
X57980000Y-101120000D03*
%TO.P,XA1,A0*%
%TO.N,Net-(R1-Pad2)*%
X30040000Y-101120000D03*
%TO.P,XA1,SCK*%
%TO.N,N/C*%
X63060000Y-101120000D03*
D13*
%TO.P,XA1,MOSI*%
X63060000Y-85880000D03*
D12*
%TO.P,XA1,RST2*%
X52900000Y-85880000D03*
%TO.P,XA1,*%
%TO.N,*%
X45280000Y-101120000D03*
%TD*%
D14*
%TO.P,R13,2*%
%TO.N,Net-(R12-Pad1)*%
X71500000Y-33160000D03*
D15*
%TO.P,R13,1*%
%TO.N,Net-(D5-Pad1)*%
X71500000Y-23000000D03*
%TD*%
D14*
%TO.P,R12,2*%
%TO.N,Net-(C1-Pad2)*%
X75500000Y-22840000D03*
D15*
%TO.P,R12,1*%
%TO.N,Net-(R12-Pad1)*%
X75500000Y-33000000D03*
%TD*%
D14*
%TO.P,R11,2*%
%TO.N,Net-(R11-Pad2)*%
X60340000Y-109000000D03*
D15*
%TO.P,R11,1*%
%TO.N,Net-(Q10-Pad2)*%
X70500000Y-109000000D03*
%TD*%
D14*
%TO.P,R10,2*%
%TO.N,Net-(Q10-Pad3)*%
X81160000Y-94500000D03*
D15*
%TO.P,R10,1*%
%TO.N,Net-(C3-Pad1)*%
X71000000Y-94500000D03*
%TD*%
D14*
%TO.P,R9,2*%
%TO.N,Net-(Q5-Pad3)*%
X26340000Y-78000000D03*
D15*
%TO.P,R9,1*%
%TO.N,Net-(C5-Pad1)*%
X36500000Y-78000000D03*
%TD*%
D14*
%TO.P,R8,2*%
%TO.N,Net-(R8-Pad2)*%
X26340000Y-81500000D03*
D15*
%TO.P,R8,1*%
%TO.N,Net-(Q6-Pad2)*%
X36500000Y-81500000D03*
%TD*%
D14*
%TO.P,R7,2*%
%TO.N,Net-(R7-Pad2)*%
X28840000Y-106500000D03*
D15*
%TO.P,R7,1*%
%TO.N,Net-(Q5-Pad2)*%
X39000000Y-106500000D03*
%TD*%
D14*
%TO.P,R6,2*%
%TO.N,Net-(C1-Pad2)*%
X62500000Y-71840000D03*
D15*
%TO.P,R6,1*%
%TO.N,Net-(C4-Pad2)*%
X62500000Y-82000000D03*
%TD*%
D14*
%TO.P,R5,2*%
%TO.N,Net-(C4-Pad1)*%
X67500000Y-33160000D03*
D15*
%TO.P,R5,1*%
%TO.N,Net-(D5-Pad1)*%
X67500000Y-23000000D03*
%TD*%
D14*
%TO.P,R4,2*%
%TO.N,Net-(C1-Pad2)*%
X49660000Y-78000000D03*
D15*
%TO.P,R4,1*%
%TO.N,Net-(C2-Pad2)*%
X39500000Y-78000000D03*
%TD*%
D14*
%TO.P,R3,2*%
%TO.N,Net-(C2-Pad1)*%
X39340000Y-81500000D03*
D15*
%TO.P,R3,1*%
%TO.N,Net-(D5-Pad1)*%
X49500000Y-81500000D03*
%TD*%
D14*
%TO.P,R2,2*%
%TO.N,Net-(C1-Pad2)*%
X90000000Y-98840000D03*
D15*
%TO.P,R2,1*%
%TO.N,Net-(R1-Pad2)*%
X90000000Y-109000000D03*
%TD*%
D14*
%TO.P,R1,2*%
%TO.N,Net-(R1-Pad2)*%
X85500000Y-109160000D03*
D15*
%TO.P,R1,1*%
%TO.N,Net-(C1-Pad1)*%
X85500000Y-99000000D03*
%TD*%
D16*
%TO.P,Q10,1*%
%TO.N,Net-(C1-Pad2)*%
X75500000Y-100500000D03*
%TO.P,Q10,2*%
%TO.N,Net-(Q10-Pad2)*%
X70420000Y-100500000D03*
%TO.P,Q10,3*%
%TO.N,Net-(Q10-Pad3)*%
X72960000Y-100500000D03*
%TD*%
D17*
%TO.P,Q8,1*%
%TO.N,Net-(C1-Pad2)*%
X33580000Y-74000000D03*
%TO.P,Q8,3*%
%TO.N,Net-(Q1-Pad3)*%
X31040000Y-74000000D03*
D18*
%TO.P,Q8,2*%
%TO.N,Net-(Q5-Pad3)*%
X28500000Y-74000000D03*
%TD*%
D17*
%TO.P,Q7,2*%
%TO.N,Net-(C5-Pad1)*%
X45580000Y-74000000D03*
%TO.P,Q7,3*%
%TO.N,Net-(Q1-Pad3)*%
X43040000Y-74000000D03*
D18*
%TO.P,Q7,1*%
%TO.N,Net-(Q5-Pad3)*%
X40500000Y-74000000D03*
%TD*%
D16*
%TO.P,Q6,1*%
%TO.N,Net-(C1-Pad2)*%
X18000000Y-73500000D03*
%TO.P,Q6,2*%
%TO.N,Net-(Q6-Pad2)*%
X23080000Y-73500000D03*
%TO.P,Q6,3*%
%TO.N,Net-(Q5-Pad1)*%
X20540000Y-73500000D03*
%TD*%
%TO.P,Q5,1*%
%TO.N,Net-(Q5-Pad1)*%
X18000000Y-79500000D03*
%TO.P,Q5,2*%
%TO.N,Net-(Q5-Pad2)*%
X23080000Y-79500000D03*
%TO.P,Q5,3*%
%TO.N,Net-(Q5-Pad3)*%
X20540000Y-79500000D03*
%TD*%
D19*
%TO.P,Q4,1*%
%TO.N,Net-(C5-Pad1)*%
X79900000Y-66000000D03*
%TO.P,Q4,3*%
%TO.N,Net-(D5-Pad1)*%
X74450000Y-66000000D03*
%TO.P,Q4,2*%
%TO.N,Net-(C4-Pad1)*%
X69000000Y-66000000D03*
%TD*%
%TO.P,Q3,1*%
%TO.N,Net-(C3-Pad1)*%
X62900000Y-66000000D03*
%TO.P,Q3,3*%
%TO.N,Net-(D5-Pad1)*%
X57450000Y-66000000D03*
%TO.P,Q3,2*%
%TO.N,Net-(C2-Pad1)*%
X52000000Y-66000000D03*
%TD*%
D20*
%TO.P,Q2,3*%
%TO.N,Net-(C1-Pad1)*%
X102190000Y-80380000D03*
%TO.P,Q2,2*%
%TO.N,Net-(F2-Pad2)*%
X102190000Y-74930000D03*
D18*
%TO.P,Q2,1*%
%TO.N,Net-(Q10-Pad3)*%
X102190000Y-69480000D03*
%TD*%
D21*
%TO.P,Q1,2*%
%TO.N,Net-(D1-Pad1)*%
X87100000Y-41200000D03*
%TO.P,Q1,1*%
%TO.N,Net-(D5-Pad1)*%
X87100000Y-35750000D03*
%TO.P,Q1,3*%
%TO.N,Net-(Q1-Pad3)*%
X87100000Y-30300000D03*
%TD*%
D22*
%TO.P,L1,2*%
%TO.N,Net-(D1-Pad1)*%
X134340000Y-20950000D03*
%TO.P,L1,4*%
%TO.N,Net-(C1-Pad1)*%
X134340000Y-59050000D03*
%TO.P,L1,1*%
%TO.N,Net-(D1-Pad1)*%
X154660000Y-20950000D03*
%TO.P,L1,3*%
%TO.N,Net-(C1-Pad1)*%
X154660000Y-59050000D03*
%TD*%
D23*
%TO.P,J8,2*%
%TO.N,Net-(IC1-Pad3)*%
X51690000Y-30540000D03*
%TO.P,J8,1*%
%TO.N,Net-(C1-Pad2)*%
X54230000Y-30540000D03*
%TD*%
%TO.P,J7,2*%
%TO.N,Net-(IC1-Pad3)*%
X110810000Y-111460000D03*
%TO.P,J7,1*%
%TO.N,Net-(C1-Pad2)*%
X108270000Y-111460000D03*
%TD*%
D22*
%TO.P,J6,1*%
%TO.N,Net-(C1-Pad2)*%
X147000000Y-83000000D03*
D24*
%TO.P,J6,*%
%TO.N,*%
X153360000Y-88080000D03*
X143200000Y-77920000D03*
X143200000Y-88080000D03*
X153360000Y-77920000D03*
%TD*%
D22*
%TO.P,J5,1*%
%TO.N,Net-(F2-Pad1)*%
X147000000Y-70000000D03*
D24*
%TO.P,J5,*%
%TO.N,*%
X153360000Y-75080000D03*
X143200000Y-64920000D03*
X143200000Y-75080000D03*
X153360000Y-64920000D03*
%TD*%
D25*
%TO.P,J4,2*%
%TO.N,Net-(C1-Pad2)*%
X129340000Y-95000000D03*
X129340000Y-105160000D03*
%TO.P,J4,1*%
%TO.N,Net-(F2-Pad1)*%
X139500000Y-105160000D03*
X139500000Y-95000000D03*
%TD*%
D22*
%TO.P,J3,1*%
%TO.N,Net-(C1-Pad2)*%
X43000000Y-47000000D03*
D24*
%TO.P,J3,*%
%TO.N,*%
X36640000Y-41920000D03*
X46800000Y-52080000D03*
X46800000Y-41920000D03*
X36640000Y-52080000D03*
%TD*%
D22*
%TO.P,J2,1*%
%TO.N,Net-(F1-Pad2)*%
X43000000Y-34000000D03*
D24*
%TO.P,J2,*%
%TO.N,*%
X36640000Y-28920000D03*
X46800000Y-39080000D03*
X46800000Y-28920000D03*
X36640000Y-39080000D03*
%TD*%
D26*
%TO.P,J1,1*%
%TO.N,Net-(F1-Pad2)*%
X20500000Y-56600000D03*
%TO.P,J1,2*%
%TO.N,Net-(C1-Pad2)*%
X20500000Y-67400000D03*
%TD*%
D20*
%TO.P,IC1,3*%
%TO.N,Net-(IC1-Pad3)*%
X102190000Y-38465000D03*
%TO.P,IC1,2*%
%TO.N,Net-(C1-Pad2)*%
X102190000Y-35925000D03*
D27*
%TO.P,IC1,1*%
%TO.N,Net-(C3-Pad1)*%
X102190000Y-33385000D03*
%TD*%
D28*
%TO.P,F2,2*%
%TO.N,Net-(F2-Pad2)*%
X148500000Y-95500000D03*
%TO.P,F2,1*%
%TO.N,Net-(F2-Pad1)*%
X171000000Y-95500000D03*
%TD*%
%TO.P,F1,2*%
%TO.N,Net-(F1-Pad2)*%
X30000000Y-21500000D03*
%TO.P,F1,1*%
%TO.N,Net-(D5-Pad2)*%
X52500000Y-21500000D03*
%TD*%
D29*
%TO.P,D5,2*%
%TO.N,Net-(D5-Pad2)*%
X56800000Y-18500000D03*
D30*
%TO.P,D5,1*%
%TO.N,Net-(D5-Pad1)*%
X71500000Y-18500000D03*
%TD*%
D31*
%TO.P,D4,2*%
%TO.N,Net-(C1-Pad2)*%
X58500000Y-33160000D03*
D32*
%TO.P,D4,1*%
%TO.N,Net-(D3-Pad2)*%
X58500000Y-23000000D03*
%TD*%
D31*
%TO.P,D3,2*%
%TO.N,Net-(D3-Pad2)*%
X63000000Y-23340000D03*
D32*
%TO.P,D3,1*%
%TO.N,Net-(C4-Pad1)*%
X63000000Y-33500000D03*
%TD*%
D31*
%TO.P,D2,2*%
%TO.N,Net-(C1-Pad2)*%
X80500000Y-109160000D03*
D32*
%TO.P,D2,1*%
%TO.N,Net-(C2-Pad1)*%
X80500000Y-99000000D03*
%TD*%
D21*
%TO.P,D1,2*%
%TO.N,Net-(C1-Pad2)*%
X87130000Y-80805000D03*
D33*
%TO.P,D1,1*%
%TO.N,Net-(D1-Pad1)*%
X87130000Y-69905000D03*
%TD*%
D15*
%TO.P,C5,2*%
%TO.N,Net-(C1-Pad2)*%
X77500000Y-74000000D03*
D34*
%TO.P,C5,1*%
%TO.N,Net-(C5-Pad1)*%
X80000000Y-74000000D03*
%TD*%
D23*
%TO.P,C4,2*%
%TO.N,Net-(C4-Pad2)*%
X79500000Y-82500000D03*
%TO.P,C4,1*%
%TO.N,Net-(C4-Pad1)*%
X72000000Y-82500000D03*
%TD*%
D15*
%TO.P,C3,2*%
%TO.N,Net-(C1-Pad2)*%
X70500000Y-74000000D03*
D34*
%TO.P,C3,1*%
%TO.N,Net-(C3-Pad1)*%
X68000000Y-74000000D03*
%TD*%
D23*
%TO.P,C2,2*%
%TO.N,Net-(C2-Pad2)*%
X72000000Y-89000000D03*
%TO.P,C2,1*%
%TO.N,Net-(C2-Pad1)*%
X79500000Y-89000000D03*
%TD*%
D35*
%TO.P,C1,2*%
%TO.N,Net-(C1-Pad2)*%
X127500000Y-83500000D03*
D36*
%TO.P,C1,1*%
%TO.N,Net-(C1-Pad1)*%
X127500000Y-71000000D03*
%TD*%
D37*
%TO.N,Net-(C2-Pad1)*%
X52000000Y-71539998D02*
X52000000Y-66000000D01*
X42039998Y-81500000D02*
X52000000Y-71539998D01*
X39340000Y-81500000D02*
X42039998Y-81500000D01*
X52000000Y-72460002D02*
X52000000Y-71539998D01*
X53539999Y-74000001D02*
X52000000Y-72460002D01*
X57460003Y-74000001D02*
X53539999Y-74000001D01*
X70260001Y-86799999D02*
X57460003Y-74000001D01*
X77299999Y-86799999D02*
X70260001Y-86799999D01*
X79500000Y-89000000D02*
X77299999Y-86799999D01*
%TO.N,Net-(C4-Pad1)*%
X72999999Y-69999999D02*
X69000000Y-66000000D01*
X72999999Y-81500001D02*
X72999999Y-69999999D01*
X72000000Y-82500000D02*
X72999999Y-81500001D01*
X67500000Y-64500000D02*
X69000000Y-66000000D01*
X67500000Y-33160000D02*
X67500000Y-64500000D01*
%TO.N,Net-(D5-Pad1)*%
X77350001Y-45499999D02*
X87100000Y-35750000D01*
X77350001Y-63099999D02*
X77350001Y-45499999D01*
X74450000Y-66000000D02*
X77350001Y-63099999D01*
%TO.N,Net-(Q1-Pad3)*%
X43040000Y-71000000D02*
X43040000Y-74000000D01*
X48762001Y-39493997D02*
X48762001Y-65277999D01*
X48762001Y-65277999D02*
X43040000Y-71000000D01*
X58010998Y-30245000D02*
X48762001Y-39493997D01*
X58065998Y-30300000D02*
X58010998Y-30245000D01*
X87100000Y-30300000D02*
X58065998Y-30300000D01*
%TO.N,Net-(Q10-Pad3)*%
X77899340Y-94500000D02*
X72960000Y-99439340D01*
X72960000Y-99439340D02*
X72960000Y-100500000D01*
X81160000Y-94500000D02*
X77899340Y-94500000D01*
%TO.N,Net-(Q6-Pad2)*%
X24800002Y-73500000D02*
X23080000Y-73500000D01*
X32800002Y-81500000D02*
X24800002Y-73500000D01*
X36500000Y-81500000D02*
X32800002Y-81500000D01*
%TO.N,Net-(Q10-Pad2)*%
X70420000Y-108920000D02*
X70500000Y-109000000D01*
X70420000Y-100500000D02*
X70420000Y-108920000D01*
D38*
%TO.N,Net-(R7-Pad2)*%
X27800000Y-106500000D02*
X28840000Y-106500000D01*
X22420000Y-101120000D02*
X27800000Y-106500000D01*
D37*
%TO.N,Net-(R11-Pad2)*%
X24960000Y-85365870D02*
X24960000Y-85880000D01*
X25802287Y-87943601D02*
X24960000Y-87101314D01*
X54951443Y-87943601D02*
X25802287Y-87943601D01*
X67308001Y-100300159D02*
X54951443Y-87943601D01*
X67308001Y-102031999D02*
X67308001Y-100300159D01*
X24960000Y-87101314D02*
X24960000Y-85880000D01*
X60340000Y-109000000D02*
X67308001Y-102031999D01*
%TD*%
M02*
