%TF.GenerationSoftware,KiCad,Pcbnew,(5.1.7)-1*%
%TF.CreationDate,2020-10-24T22:07:25+02:00*%
%TF.ProjectId,dcconverter,6463636f-6e76-4657-9274-65722e6b6963,rev?*%
%TF.SameCoordinates,Original*%
%TF.FileFunction,Soldermask,Bot*%
%TF.FilePolarity,Negative*%
%FSLAX46Y46*%
G04 Gerber Fmt 4.6, Leading zero omitted, Abs format (unit mm)*
G04 Created by KiCad (PCBNEW (5.1.7)-1) date 2020-10-24 22:07:25*
%MOMM*%
%LPD*%
G01*
G04 APERTURE LIST*
%ADD10C,3.400000*%
%ADD11C,5.000000*%
%ADD12C,2.400000*%
%ADD13R,2.400000X2.400000*%
%ADD14C,4.000000*%
%ADD15O,1.905000X2.000000*%
%ADD16R,1.905000X2.000000*%
%ADD17O,3.500000X3.500000*%
%ADD18C,1.310000*%
%ADD19R,1.800000X1.800000*%
%ADD20C,1.800000*%
%ADD21C,2.000000*%
%ADD22R,2.500000X4.500000*%
%ADD23O,2.500000X4.500000*%
%ADD24R,2.200000X2.200000*%
%ADD25O,2.200000X2.200000*%
%ADD26C,2.700000*%
%ADD27C,3.000000*%
%ADD28R,6.600000X3.300000*%
%ADD29O,6.600000X3.300000*%
%ADD30R,2.085000X2.085000*%
%ADD31C,2.085000*%
%ADD32O,3.400000X3.400000*%
%ADD33R,4.500000X2.500000*%
%ADD34O,4.500000X2.500000*%
%ADD35R,1.050000X1.500000*%
%ADD36O,1.050000X1.500000*%
%ADD37C,1.600000*%
%ADD38O,1.600000X1.600000*%
G04 APERTURE END LIST*
D10*
%TO.C,L1*%
X39040000Y-142875000D03*
X93040000Y-142875000D03*
D11*
X55880000Y-123825000D03*
X55880000Y-161925000D03*
X76200000Y-123825000D03*
X76200000Y-161925000D03*
%TD*%
D12*
%TO.C,C4*%
X62865000Y-56395000D03*
D13*
X62865000Y-48895000D03*
%TD*%
D12*
%TO.C,C3*%
X81915000Y-56395000D03*
D13*
X81915000Y-48895000D03*
%TD*%
D14*
%TO.C,HS-Q1*%
X45720000Y-99695000D03*
X71120000Y-99695000D03*
%TD*%
D15*
%TO.C,Q8*%
X22860000Y-62865000D03*
X25400000Y-62865000D03*
D16*
X27940000Y-62865000D03*
D17*
X25400000Y-79525000D03*
%TD*%
D18*
%TO.C,J5*%
X157480000Y-44450000D03*
X157480000Y-46990000D03*
%TD*%
%TO.C,J4*%
X24130000Y-26035000D03*
X24130000Y-28575000D03*
%TD*%
D19*
%TO.C,C1*%
X145415000Y-99695000D03*
D20*
X157915000Y-99695000D03*
%TD*%
D21*
%TO.C,C2*%
X152400000Y-52705000D03*
X152400000Y-60205000D03*
%TD*%
D22*
%TO.C,D1*%
X97400000Y-103555000D03*
D23*
X108300000Y-103555000D03*
%TD*%
D24*
%TO.C,D2*%
X102235000Y-51435000D03*
D25*
X102235000Y-61595000D03*
%TD*%
D24*
%TO.C,D3*%
X50800000Y-60960000D03*
D25*
X50800000Y-50800000D03*
%TD*%
%TO.C,D4*%
X46355000Y-60960000D03*
D24*
X46355000Y-50800000D03*
%TD*%
D26*
%TO.C,F1*%
X26035000Y-125275000D03*
D27*
X26035000Y-114025000D03*
X26035000Y-136525000D03*
%TD*%
%TO.C,F2*%
X155575000Y-139065000D03*
X155575000Y-116565000D03*
D26*
X155575000Y-127815000D03*
%TD*%
D14*
%TO.C,HS-D1*%
X90170000Y-99695000D03*
X115570000Y-99695000D03*
%TD*%
%TO.C,HS-IC1*%
X129515001Y-33090001D03*
X104115001Y-33090001D03*
%TD*%
%TO.C,HS-Q2*%
X110490000Y-154940000D03*
X110490000Y-129540000D03*
%TD*%
D16*
%TO.C,IC1*%
X114300000Y-37600000D03*
D15*
X116840000Y-37600000D03*
X119380000Y-37600000D03*
%TD*%
D28*
%TO.C,J1*%
X26035000Y-102870000D03*
D29*
X26035000Y-92870000D03*
%TD*%
D18*
%TO.C,J2*%
X163195000Y-46990000D03*
X163195000Y-44450000D03*
X163195000Y-41910000D03*
X163195000Y-39370000D03*
X163195000Y-36830000D03*
X163195000Y-34290000D03*
%TD*%
D14*
%TO.C,J3*%
X145415000Y-148590000D03*
X155575000Y-148590000D03*
X155575000Y-158750000D03*
X145415000Y-158750000D03*
%TD*%
D22*
%TO.C,Q1*%
X52990000Y-95485000D03*
D23*
X58440000Y-95485000D03*
X63890000Y-95485000D03*
%TD*%
D30*
%TO.C,Q2*%
X113560000Y-139640000D03*
D31*
X113560000Y-142180000D03*
X113560000Y-144720000D03*
%TD*%
D32*
%TO.C,Q3*%
X60575000Y-32650000D03*
D33*
X79375000Y-38100000D03*
D34*
X79375000Y-32650000D03*
X79375000Y-27200000D03*
%TD*%
D23*
%TO.C,Q4*%
X49000000Y-45085000D03*
X43550000Y-45085000D03*
D22*
X38100000Y-45085000D03*
D32*
X43550000Y-26285000D03*
%TD*%
D35*
%TO.C,Q5*%
X39370000Y-55245000D03*
D36*
X36830000Y-55245000D03*
X38100000Y-55245000D03*
%TD*%
%TO.C,Q6*%
X38100000Y-60960000D03*
X39370000Y-60960000D03*
D35*
X36830000Y-60960000D03*
%TD*%
D17*
%TO.C,Q7*%
X25400000Y-37950000D03*
D16*
X22860000Y-54610000D03*
D15*
X25400000Y-54610000D03*
X27940000Y-54610000D03*
%TD*%
D36*
%TO.C,Q10*%
X137795000Y-63500000D03*
X136525000Y-63500000D03*
D35*
X139065000Y-63500000D03*
%TD*%
D37*
%TO.C,R1*%
X145415000Y-62865000D03*
D38*
X145415000Y-52705000D03*
%TD*%
%TO.C,R2*%
X159385000Y-62865000D03*
D37*
X159385000Y-52705000D03*
%TD*%
D38*
%TO.C,R3*%
X98425000Y-51435000D03*
D37*
X98425000Y-61595000D03*
%TD*%
%TO.C,R4*%
X94615000Y-61595000D03*
D38*
X94615000Y-51435000D03*
%TD*%
D37*
%TO.C,R5*%
X56515000Y-74930000D03*
D38*
X56515000Y-64770000D03*
%TD*%
%TO.C,R6*%
X52705000Y-64770000D03*
D37*
X52705000Y-74930000D03*
%TD*%
%TO.C,R7*%
X148590000Y-40005000D03*
D38*
X158750000Y-40005000D03*
%TD*%
%TO.C,R8*%
X158750000Y-36830000D03*
D37*
X148590000Y-36830000D03*
%TD*%
%TO.C,R9*%
X33020000Y-45085000D03*
D38*
X33020000Y-55245000D03*
%TD*%
%TO.C,R10*%
X136525000Y-59690000D03*
D37*
X136525000Y-49530000D03*
%TD*%
%TO.C,R11*%
X148590000Y-33655000D03*
D38*
X158750000Y-33655000D03*
%TD*%
M02*
