M48
; DRILL file {KiCad (5.1.8)-1} date 11/22/20 17:52:58
; FORMAT={-:-/ absolute / inch / decimal}
; #@! TF.CreationDate,2020-11-22T17:52:58+01:00
; #@! TF.GenerationSoftware,Kicad,Pcbnew,(5.1.8)-1
FMAT,2
INCH
T1C0.0315
T2C0.0394
T3C0.0400
T4C0.0433
T5C0.0472
T6C0.0512
T7C0.0551
T8C0.0591
T9C0.0906
T10C0.0945
T11C0.1063
T12C0.1969
T13C0.0300
T14C0.0394
T15C0.0400
T16C0.1063
T17C0.1339
T18C0.1378
%
G90
G05
T1
X2.6772Y-2.9134
X2.7756Y-2.9134
X1.037Y-3.2087
X1.437Y-3.2087
X1.5488Y-3.2087
X1.9488Y-3.2087
X2.7724Y-3.9567
X2.8724Y-3.9567
X2.9724Y-3.9567
X2.815Y-0.9055
X2.815Y-1.3055
X1.037Y-3.0709
X1.437Y-3.0709
X3.3661Y-3.8976
X3.3661Y-4.2976
X2.7953Y-3.7205
X3.1953Y-3.7205
X0.7087Y-3.1299
X0.8087Y-3.1299
X0.9087Y-3.1299
X2.3756Y-4.2913
X2.7756Y-4.2913
X0.7087Y-2.8937
X0.8087Y-2.8937
X0.9087Y-2.8937
X2.9724Y-0.8992
X2.9724Y-1.2992
X1.5551Y-3.0709
X1.9551Y-3.0709
X3.0512Y-2.9134
X3.1496Y-2.9134
X3.5433Y-3.8913
X3.5433Y-4.2913
X2.4606Y-2.8283
X2.4606Y-3.2283
X1.1354Y-4.1929
X1.5354Y-4.1929
X2.6575Y-0.9055
X2.6575Y-1.3055
T2
X2.8346Y-3.5039
X3.1299Y-3.5039
X2.8346Y-3.248
X3.1299Y-3.248
T3
X0.8827Y-3.3811
X0.8827Y-3.9811
X0.9827Y-3.3811
X0.9827Y-3.9811
X1.0827Y-3.3811
X1.0827Y-3.9811
X1.1827Y-3.3811
X1.1827Y-3.9811
X1.2827Y-3.3811
X1.2827Y-3.9811
X1.3827Y-3.3811
X1.3827Y-3.9811
X1.4827Y-3.3811
X1.4827Y-3.9811
X1.5827Y-3.3811
X1.5827Y-3.9811
X1.6827Y-3.3811
X1.6827Y-3.9811
X1.7827Y-3.3811
X1.7827Y-3.9811
X1.8827Y-3.3811
X1.8827Y-3.9811
X1.9827Y-3.3811
X1.9827Y-3.9811
X2.0827Y-3.3811
X2.0827Y-3.9811
X2.1827Y-3.3811
X2.1827Y-3.9811
X2.2827Y-3.3811
X2.2827Y-3.9811
X2.3827Y-3.3811
X2.3827Y-3.9811
X2.4827Y-3.3811
X2.4827Y-3.9811
T4
X2.4803Y-0.9189
X2.4803Y-1.3189
X4.0232Y-1.3144
X4.0232Y-1.4144
X4.0232Y-1.5144
X1.5945Y-2.9134
X1.6945Y-2.9134
X1.7945Y-2.9134
X4.0232Y-2.7354
X4.0232Y-2.95
X4.0232Y-3.1646
X1.122Y-2.9134
X1.222Y-2.9134
X1.322Y-2.9134
X2.3031Y-0.9055
X2.3031Y-1.3055
X3.1693Y-3.8976
X3.1693Y-4.2976
T5
X5.0197Y-2.7953
X5.0197Y-3.2874
T6
X1.1811Y-0.8465
X2.0669Y-0.8465
X2.035Y-1.2024
X2.135Y-1.2024
X4.2626Y-4.3882
X4.3626Y-4.3882
X5.8465Y-3.7598
X6.7323Y-3.7598
T7
X2.2362Y-0.7283
X2.815Y-0.7283
X0.8071Y-2.2283
X0.8071Y-2.6535
T8
X3.4303Y-2.7522
X3.4303Y-3.1813
X2.0472Y-2.5984
X2.2618Y-2.5984
X2.4764Y-2.5984
X3.4291Y-1.1929
X3.4291Y-1.4075
X3.4291Y-1.622
X2.7165Y-2.5984
X2.9311Y-2.5984
X3.1457Y-2.5984
T9
X5.7874Y-2.7559
X5.7874Y-3.2677
X1.6929Y-1.3386
X1.6929Y-1.8504
T10
X5.0921Y-3.7402
X5.0921Y-4.1402
X5.4921Y-3.7402
X5.4921Y-4.1402
T11
X5.289Y-0.8248
X5.289Y-2.3248
X6.089Y-0.8248
X6.089Y-2.3248
T12
X0.8465Y-0.8465
X0.8465Y-4.2717
X6.6339Y-4.2717
T13
X4.2122Y-2.41
X4.2122Y-3.5045
X3.576Y-2.4175
X3.576Y-3.512
X3.577Y-0.8561
X3.577Y-1.9506
X4.2122Y-0.8593
X4.2122Y-1.9537
T14
X5.6378Y-3.0677
X5.6378Y-3.4677
X6.0378Y-3.0677
X6.0378Y-3.4677
X1.4425Y-1.1386
X1.4425Y-1.5386
X1.8425Y-1.1386
X1.8425Y-1.5386
X1.4425Y-1.6504
X1.4425Y-2.0504
X1.8425Y-1.6504
X1.8425Y-2.0504
X5.6378Y-2.5559
X5.6378Y-2.9559
X6.0378Y-2.5559
X6.0378Y-2.9559
T15
X0.7827Y-3.3811
X0.7827Y-3.9811
X2.5827Y-3.3811
X2.5827Y-3.9811
T16
X1.624Y-0.8465
X6.2894Y-3.7598
T17
X2.2618Y-1.5748
X2.9311Y-1.5748
X4.626Y-1.5748
X6.752Y-1.5748
T18
X1.6945Y-2.2575
X1.222Y-2.2575
T0
M30
