%TF.GenerationSoftware,KiCad,Pcbnew,(5.1.7)-1*%
%TF.CreationDate,2020-10-24T18:30:36+02:00*%
%TF.ProjectId,dcconverter,6463636f-6e76-4657-9274-65722e6b6963,rev?*%
%TF.SameCoordinates,Original*%
%TF.FileFunction,Copper,L1,Top*%
%TF.FilePolarity,Positive*%
%FSLAX46Y46*%
G04 Gerber Fmt 4.6, Leading zero omitted, Abs format (unit mm)*
G04 Created by KiCad (PCBNEW (5.1.7)-1) date 2020-10-24 18:30:36*
%MOMM*%
%LPD*%
G01*
G04 APERTURE LIST*
%TA.AperFunction,ComponentPad*%
%ADD10C,5.000000*%
%TD*%
%TA.AperFunction,ComponentPad*%
%ADD11C,2.400000*%
%TD*%
%TA.AperFunction,ComponentPad*%
%ADD12R,2.400000X2.400000*%
%TD*%
%TA.AperFunction,ComponentPad*%
%ADD13C,4.000000*%
%TD*%
%TA.AperFunction,ComponentPad*%
%ADD14O,1.905000X2.000000*%
%TD*%
%TA.AperFunction,ComponentPad*%
%ADD15R,1.905000X2.000000*%
%TD*%
%TA.AperFunction,ComponentPad*%
%ADD16C,1.310000*%
%TD*%
%TA.AperFunction,ComponentPad*%
%ADD17R,1.800000X1.800000*%
%TD*%
%TA.AperFunction,ComponentPad*%
%ADD18C,1.800000*%
%TD*%
%TA.AperFunction,ComponentPad*%
%ADD19C,2.000000*%
%TD*%
%TA.AperFunction,ComponentPad*%
%ADD20R,2.500000X4.500000*%
%TD*%
%TA.AperFunction,ComponentPad*%
%ADD21O,2.500000X4.500000*%
%TD*%
%TA.AperFunction,ComponentPad*%
%ADD22R,2.200000X2.200000*%
%TD*%
%TA.AperFunction,ComponentPad*%
%ADD23O,2.200000X2.200000*%
%TD*%
%TA.AperFunction,ComponentPad*%
%ADD24C,3.000000*%
%TD*%
%TA.AperFunction,ComponentPad*%
%ADD25R,6.600000X3.300000*%
%TD*%
%TA.AperFunction,ComponentPad*%
%ADD26O,6.600000X3.300000*%
%TD*%
%TA.AperFunction,ComponentPad*%
%ADD27R,2.085000X2.085000*%
%TD*%
%TA.AperFunction,ComponentPad*%
%ADD28C,2.085000*%
%TD*%
%TA.AperFunction,ComponentPad*%
%ADD29R,4.500000X2.500000*%
%TD*%
%TA.AperFunction,ComponentPad*%
%ADD30O,4.500000X2.500000*%
%TD*%
%TA.AperFunction,ComponentPad*%
%ADD31R,1.050000X1.500000*%
%TD*%
%TA.AperFunction,ComponentPad*%
%ADD32O,1.050000X1.500000*%
%TD*%
%TA.AperFunction,ComponentPad*%
%ADD33C,1.600000*%
%TD*%
%TA.AperFunction,ComponentPad*%
%ADD34O,1.600000X1.600000*%
%TD*%
%TA.AperFunction,ViaPad*%
%ADD35C,5.000000*%
%TD*%
%TA.AperFunction,ViaPad*%
%ADD36C,2.000000*%
%TD*%
%TA.AperFunction,ViaPad*%
%ADD37C,3.000000*%
%TD*%
%TA.AperFunction,ViaPad*%
%ADD38C,1.000000*%
%TD*%
%TA.AperFunction,Conductor*%
%ADD39C,2.000000*%
%TD*%
%TA.AperFunction,Conductor*%
%ADD40C,5.000000*%
%TD*%
%TA.AperFunction,Conductor*%
%ADD41C,1.000000*%
%TD*%
G04 APERTURE END LIST*
D10*
%TO.P,L1,3*%
%TO.N,Net-(L1-Pad2)*%
X55880000Y-123825000D03*
%TO.P,L1,1*%
%TO.N,Net-(D1-Pad1)*%
X55880000Y-161925000D03*
%TO.P,L1,4*%
%TO.N,Net-(C1-Pad1)*%
X76200000Y-123825000D03*
%TO.P,L1,2*%
%TO.N,Net-(L1-Pad2)*%
X76200000Y-161925000D03*
%TD*%
D11*
%TO.P,C4,2*%
%TO.N,Net-(C1-Pad2)*%
X62865000Y-56395000D03*
D12*
%TO.P,C4,1*%
%TO.N,Net-(C4-Pad1)*%
X62865000Y-48895000D03*
%TD*%
D11*
%TO.P,C3,2*%
%TO.N,Net-(C1-Pad2)*%
X81915000Y-56395000D03*
D12*
%TO.P,C3,1*%
%TO.N,Net-(C3-Pad1)*%
X81915000Y-48895000D03*
%TD*%
D13*
%TO.P,HS-Q1,1*%
%TO.N,Net-(HS-Q1-Pad1)*%
X45720000Y-99695000D03*
X71120000Y-99695000D03*
%TD*%
D14*
%TO.P,Q8,3*%
%TO.N,Net-(Q1-Pad3)*%
X22860000Y-62865000D03*
%TO.P,Q8,2*%
%TO.N,Net-(Q5-Pad3)*%
X25400000Y-62865000D03*
D15*
%TO.P,Q8,1*%
%TO.N,Net-(C1-Pad2)*%
X27940000Y-62865000D03*
%TD*%
D16*
%TO.P,J5,2*%
%TO.N,Net-(IC1-Pad3)*%
X157480000Y-44450000D03*
%TO.P,J5,1*%
%TO.N,Net-(C1-Pad2)*%
X157480000Y-46990000D03*
%TD*%
%TO.P,J4,2*%
%TO.N,Net-(IC1-Pad3)*%
X24130000Y-26035000D03*
%TO.P,J4,1*%
%TO.N,Net-(C1-Pad2)*%
X24130000Y-28575000D03*
%TD*%
D17*
%TO.P,C1,1*%
%TO.N,Net-(C1-Pad1)*%
X145415000Y-99695000D03*
D18*
%TO.P,C1,2*%
%TO.N,Net-(C1-Pad2)*%
X157915000Y-99695000D03*
%TD*%
D19*
%TO.P,C2,1*%
%TO.N,Net-(C2-Pad1)*%
X152400000Y-52705000D03*
%TO.P,C2,2*%
%TO.N,Net-(C1-Pad2)*%
X152400000Y-60205000D03*
%TD*%
D20*
%TO.P,D1,1*%
%TO.N,Net-(D1-Pad1)*%
X97400000Y-103555000D03*
D21*
%TO.P,D1,2*%
%TO.N,Net-(C1-Pad2)*%
X108300000Y-103555000D03*
%TD*%
D22*
%TO.P,D2,1*%
%TO.N,Net-(D2-Pad1)*%
X102235000Y-51435000D03*
D23*
%TO.P,D2,2*%
%TO.N,Net-(C1-Pad2)*%
X102235000Y-61595000D03*
%TD*%
D22*
%TO.P,D3,1*%
%TO.N,Net-(D3-Pad1)*%
X50800000Y-60960000D03*
D23*
%TO.P,D3,2*%
%TO.N,Net-(D3-Pad2)*%
X50800000Y-50800000D03*
%TD*%
%TO.P,D4,2*%
%TO.N,Net-(C1-Pad2)*%
X46355000Y-60960000D03*
D22*
%TO.P,D4,1*%
%TO.N,Net-(D3-Pad2)*%
X46355000Y-50800000D03*
%TD*%
D24*
%TO.P,F1,2*%
%TO.N,Net-(F1-Pad2)*%
X26035000Y-114025000D03*
%TO.P,F1,1*%
%TO.N,Net-(F1-Pad1)*%
X26035000Y-136525000D03*
%TD*%
%TO.P,F2,1*%
%TO.N,Net-(F2-Pad1)*%
X155575000Y-139065000D03*
%TO.P,F2,2*%
%TO.N,Net-(F2-Pad2)*%
X155575000Y-116565000D03*
%TD*%
D13*
%TO.P,HS-D1,1*%
%TO.N,Net-(HS-D1-Pad1)*%
X90170000Y-99695000D03*
X115570000Y-99695000D03*
%TD*%
%TO.P,HS-IC1,1*%
%TO.N,Net-(HS-IC1-Pad1)*%
X129515001Y-33090001D03*
X104115001Y-33090001D03*
%TD*%
%TO.P,HS-Q2,1*%
%TO.N,Net-(HS-Q2-Pad1)*%
X110490000Y-154940000D03*
X110490000Y-129540000D03*
%TD*%
D15*
%TO.P,IC1,1*%
%TO.N,Net-(C3-Pad1)*%
X114300000Y-37600000D03*
D14*
%TO.P,IC1,2*%
%TO.N,Net-(C1-Pad2)*%
X116840000Y-37600000D03*
%TO.P,IC1,3*%
%TO.N,Net-(IC1-Pad3)*%
X119380000Y-37600000D03*
%TD*%
D25*
%TO.P,J1,1*%
%TO.N,Net-(F1-Pad2)*%
X26035000Y-102870000D03*
D26*
%TO.P,J1,2*%
%TO.N,Net-(C1-Pad2)*%
X26035000Y-92870000D03*
%TD*%
D16*
%TO.P,J2,1*%
%TO.N,Net-(C1-Pad2)*%
X163195000Y-46990000D03*
%TO.P,J2,2*%
%TO.N,Net-(IC1-Pad3)*%
X163195000Y-44450000D03*
%TO.P,J2,3*%
%TO.N,Net-(C2-Pad1)*%
X163195000Y-41910000D03*
%TO.P,J2,4*%
%TO.N,Net-(J2-Pad4)*%
X163195000Y-39370000D03*
%TO.P,J2,5*%
%TO.N,Net-(J2-Pad5)*%
X163195000Y-36830000D03*
%TO.P,J2,6*%
%TO.N,Net-(J2-Pad6)*%
X163195000Y-34290000D03*
%TD*%
D13*
%TO.P,J3,1*%
%TO.N,Net-(F2-Pad1)*%
X145415000Y-148590000D03*
X155575000Y-148590000D03*
%TO.P,J3,2*%
%TO.N,Net-(C1-Pad2)*%
X155575000Y-158750000D03*
X145415000Y-158750000D03*
%TD*%
D20*
%TO.P,Q1,1*%
%TO.N,Net-(F1-Pad1)*%
X52990000Y-95485000D03*
D21*
%TO.P,Q1,2*%
%TO.N,Net-(D1-Pad1)*%
X58440000Y-95485000D03*
%TO.P,Q1,3*%
%TO.N,Net-(Q1-Pad3)*%
X63890000Y-95485000D03*
%TD*%
D27*
%TO.P,Q2,1*%
%TO.N,Net-(Q10-Pad3)*%
X113560000Y-139640000D03*
D28*
%TO.P,Q2,2*%
%TO.N,Net-(F2-Pad2)*%
X113560000Y-142180000D03*
%TO.P,Q2,3*%
%TO.N,Net-(C1-Pad1)*%
X113560000Y-144720000D03*
%TD*%
D29*
%TO.P,Q3,1*%
%TO.N,Net-(C3-Pad1)*%
X79375000Y-38100000D03*
D30*
%TO.P,Q3,2*%
%TO.N,Net-(D2-Pad1)*%
X79375000Y-32650000D03*
%TO.P,Q3,3*%
%TO.N,Net-(Q3-Pad3)*%
X79375000Y-27200000D03*
%TD*%
D21*
%TO.P,Q4,3*%
%TO.N,Net-(Q4-Pad3)*%
X49000000Y-45085000D03*
%TO.P,Q4,2*%
%TO.N,Net-(D3-Pad1)*%
X43550000Y-45085000D03*
D20*
%TO.P,Q4,1*%
%TO.N,Net-(C4-Pad1)*%
X38100000Y-45085000D03*
%TD*%
D31*
%TO.P,Q5,1*%
%TO.N,Net-(Q5-Pad1)*%
X39370000Y-55245000D03*
D32*
%TO.P,Q5,3*%
%TO.N,Net-(Q5-Pad3)*%
X36830000Y-55245000D03*
%TO.P,Q5,2*%
%TO.N,Net-(Q5-Pad2)*%
X38100000Y-55245000D03*
%TD*%
%TO.P,Q6,2*%
%TO.N,Net-(Q6-Pad2)*%
X38100000Y-60960000D03*
%TO.P,Q6,3*%
%TO.N,Net-(Q5-Pad1)*%
X39370000Y-60960000D03*
D31*
%TO.P,Q6,1*%
%TO.N,Net-(C1-Pad2)*%
X36830000Y-60960000D03*
%TD*%
D15*
%TO.P,Q7,1*%
%TO.N,Net-(Q5-Pad3)*%
X22860000Y-54610000D03*
D14*
%TO.P,Q7,2*%
%TO.N,Net-(C4-Pad1)*%
X25400000Y-54610000D03*
%TO.P,Q7,3*%
%TO.N,Net-(Q1-Pad3)*%
X27940000Y-54610000D03*
%TD*%
D32*
%TO.P,Q10,2*%
%TO.N,Net-(Q10-Pad2)*%
X137795000Y-63500000D03*
%TO.P,Q10,3*%
%TO.N,Net-(Q10-Pad3)*%
X136525000Y-63500000D03*
D31*
%TO.P,Q10,1*%
%TO.N,Net-(C1-Pad2)*%
X139065000Y-63500000D03*
%TD*%
D33*
%TO.P,R1,1*%
%TO.N,Net-(C1-Pad1)*%
X145415000Y-62865000D03*
D34*
%TO.P,R1,2*%
%TO.N,Net-(C2-Pad1)*%
X145415000Y-52705000D03*
%TD*%
%TO.P,R2,2*%
%TO.N,Net-(C1-Pad2)*%
X159385000Y-62865000D03*
D33*
%TO.P,R2,1*%
%TO.N,Net-(C2-Pad1)*%
X159385000Y-52705000D03*
%TD*%
D34*
%TO.P,R3,2*%
%TO.N,Net-(D2-Pad1)*%
X98425000Y-51435000D03*
D33*
%TO.P,R3,1*%
%TO.N,Net-(F1-Pad1)*%
X98425000Y-61595000D03*
%TD*%
%TO.P,R4,1*%
%TO.N,Net-(F1-Pad1)*%
X94615000Y-61595000D03*
D34*
%TO.P,R4,2*%
%TO.N,Net-(Q3-Pad3)*%
X94615000Y-51435000D03*
%TD*%
D33*
%TO.P,R5,1*%
%TO.N,Net-(F1-Pad1)*%
X56515000Y-74930000D03*
D34*
%TO.P,R5,2*%
%TO.N,Net-(D3-Pad1)*%
X56515000Y-64770000D03*
%TD*%
%TO.P,R6,2*%
%TO.N,Net-(Q4-Pad3)*%
X52705000Y-64770000D03*
D33*
%TO.P,R6,1*%
%TO.N,Net-(F1-Pad1)*%
X52705000Y-74930000D03*
%TD*%
%TO.P,R7,1*%
%TO.N,Net-(Q5-Pad2)*%
X148590000Y-40005000D03*
D34*
%TO.P,R7,2*%
%TO.N,Net-(J2-Pad4)*%
X158750000Y-40005000D03*
%TD*%
%TO.P,R8,2*%
%TO.N,Net-(J2-Pad5)*%
X158750000Y-36830000D03*
D33*
%TO.P,R8,1*%
%TO.N,Net-(Q6-Pad2)*%
X148590000Y-36830000D03*
%TD*%
%TO.P,R9,1*%
%TO.N,Net-(C4-Pad1)*%
X33020000Y-45085000D03*
D34*
%TO.P,R9,2*%
%TO.N,Net-(Q5-Pad3)*%
X33020000Y-55245000D03*
%TD*%
%TO.P,R10,2*%
%TO.N,Net-(Q10-Pad3)*%
X136525000Y-59690000D03*
D33*
%TO.P,R10,1*%
%TO.N,Net-(C3-Pad1)*%
X136525000Y-49530000D03*
%TD*%
%TO.P,R11,1*%
%TO.N,Net-(Q10-Pad2)*%
X148590000Y-33655000D03*
D34*
%TO.P,R11,2*%
%TO.N,Net-(J2-Pad6)*%
X158750000Y-33655000D03*
%TD*%
D35*
%TO.N,Net-(C1-Pad2)*%
X142875000Y-134620000D03*
X157915000Y-69650000D03*
X101600000Y-92710000D03*
X101600000Y-69850000D03*
D36*
X62865000Y-69850000D03*
X81915000Y-69850000D03*
%TO.N,Net-(C3-Pad1)*%
X113030000Y-43180000D03*
%TO.N,Net-(D2-Pad1)*%
X92710000Y-41275000D03*
X91440000Y-33020000D03*
%TO.N,Net-(F1-Pad1)*%
X94615000Y-79375000D03*
%TO.N,Net-(IC1-Pad3)*%
X144145000Y-44450000D03*
D37*
%TO.N,Net-(Q1-Pad3)*%
X59690000Y-86995000D03*
D38*
%TO.N,Net-(Q10-Pad3)*%
X131445000Y-123825000D03*
%TO.N,Net-(Q5-Pad2)*%
X41910000Y-57150000D03*
%TO.N,Net-(Q6-Pad2)*%
X43815000Y-57150000D03*
%TD*%
D39*
%TO.N,Net-(C1-Pad1)*%
X145415000Y-99695000D02*
X145415000Y-62865000D01*
D40*
%TO.N,Net-(C1-Pad2)*%
X157915000Y-99695000D02*
X142875000Y-114735000D01*
X142875000Y-114735000D02*
X142875000Y-134620000D01*
X142875000Y-134620000D02*
X142875000Y-134620000D01*
X157915000Y-99695000D02*
X157915000Y-69650000D01*
X157915000Y-69650000D02*
X157915000Y-69650000D01*
X101600000Y-92710000D02*
X101600000Y-69850000D01*
X101600000Y-69850000D02*
X101600000Y-69850000D01*
D39*
X62865000Y-56395000D02*
X62865000Y-69850000D01*
X62865000Y-69850000D02*
X62865000Y-69850000D01*
X81915000Y-56395000D02*
X81915000Y-69850000D01*
X81915000Y-69850000D02*
X81915000Y-69850000D01*
X102235000Y-69215000D02*
X101600000Y-69850000D01*
X102235000Y-61595000D02*
X102235000Y-69215000D01*
%TO.N,Net-(C3-Pad1)*%
X135255000Y-48260000D02*
X136525000Y-49530000D01*
X118110000Y-48260000D02*
X135255000Y-48260000D01*
X113030000Y-43180000D02*
X118110000Y-48260000D01*
%TO.N,Net-(D2-Pad1)*%
X92710000Y-41275000D02*
X92710000Y-35560000D01*
X92710000Y-35560000D02*
X92710000Y-34290000D01*
X92710000Y-34290000D02*
X91440000Y-33020000D01*
X91440000Y-33020000D02*
X91440000Y-33020000D01*
D41*
%TO.N,Net-(D3-Pad1)*%
X43550000Y-53710000D02*
X43550000Y-45085000D01*
X50800000Y-60960000D02*
X43550000Y-53710000D01*
D39*
%TO.N,Net-(F1-Pad1)*%
X94615000Y-61595000D02*
X94615000Y-79375000D01*
X94615000Y-79375000D02*
X94615000Y-79375000D01*
%TO.N,Net-(IC1-Pad3)*%
X157480000Y-44450000D02*
X144145000Y-44450000D01*
X144145000Y-44450000D02*
X144145000Y-44450000D01*
%TO.N,Net-(Q1-Pad3)*%
X27940000Y-57233392D02*
X26118392Y-59055000D01*
X27940000Y-54610000D02*
X27940000Y-57233392D01*
X26118392Y-59055000D02*
X24130000Y-59055000D01*
X22860000Y-60325000D02*
X22860000Y-62865000D01*
X24130000Y-59055000D02*
X22860000Y-60325000D01*
X34841608Y-64135000D02*
X27940000Y-57233392D01*
X36830000Y-64135000D02*
X34841608Y-64135000D01*
X59690000Y-86995000D02*
X36830000Y-64135000D01*
D41*
%TO.N,Net-(Q10-Pad3)*%
X131445000Y-63500000D02*
X136525000Y-63500000D01*
X131445000Y-63500000D02*
X131445000Y-123825000D01*
X131445000Y-123825000D02*
X131445000Y-123825000D01*
D39*
%TO.N,Net-(Q3-Pad3)*%
X84350000Y-27200000D02*
X79375000Y-27200000D01*
X87630000Y-42545000D02*
X87630000Y-30480000D01*
X94615000Y-49530000D02*
X87630000Y-42545000D01*
X87630000Y-30480000D02*
X84350000Y-27200000D01*
X94615000Y-51435000D02*
X94615000Y-49530000D01*
%TO.N,Net-(Q4-Pad3)*%
X53975000Y-50060000D02*
X49000000Y-45085000D01*
X53975000Y-62230000D02*
X53975000Y-50060000D01*
X52705000Y-63500000D02*
X53975000Y-62230000D01*
X52705000Y-64770000D02*
X52705000Y-63500000D01*
D41*
%TO.N,Net-(Q5-Pad2)*%
X38055010Y-55289990D02*
X38055010Y-56470010D01*
X38100000Y-55245000D02*
X38055010Y-55289990D01*
X38055010Y-56470010D02*
X38735000Y-57150000D01*
X38735000Y-57150000D02*
X41910000Y-57150000D01*
X41910000Y-57150000D02*
X41910000Y-57150000D01*
%TO.N,Net-(Q6-Pad2)*%
X38100000Y-60960000D02*
X38100000Y-59690000D01*
X38100000Y-59690000D02*
X38280010Y-59509990D01*
X38280010Y-59509990D02*
X38735000Y-59055000D01*
X38735000Y-59055000D02*
X39422425Y-59055000D01*
X39422425Y-59055000D02*
X41910000Y-59055000D01*
X41910000Y-59055000D02*
X41910000Y-59055000D01*
X41910000Y-59055000D02*
X42545000Y-59055000D01*
X42545000Y-59055000D02*
X43815000Y-57785000D01*
X43815000Y-57785000D02*
X43815000Y-57150000D01*
X43815000Y-57150000D02*
X43815000Y-57150000D01*
%TD*%
M02*
