M48
; DRILL file {KiCad (5.1.7)-1} date 10/24/20 18:26:21
; FORMAT={-:-/ absolute / inch / decimal}
; #@! TF.CreationDate,2020-10-24T18:26:21+02:00
; #@! TF.GenerationSoftware,Kicad,Pcbnew,(5.1.7)-1
; #@! TF.FileFunction,Plated,1,2,PTH
FMAT,2
INCH
T1C0.0197
T2C0.0295
T3C0.0315
T4C0.0319
T5C0.0394
T6C0.0433
T7C0.0472
T8C0.0512
T9C0.0547
T10C0.0591
T11C0.0866
T12C0.0945
T13C0.0984
T14C0.1063
%
G90
G05
T1
X1.65Y-2.25
X1.725Y-2.25
X2.35Y-3.425
X2.475Y-2.75
X3.225Y-2.75
X3.6Y-1.3
X3.65Y-1.625
X3.725Y-3.125
X4.0Y-2.75
X4.0Y-3.65
X4.45Y-1.7
X5.175Y-4.875
X5.625Y-5.3
X5.675Y-1.75
X6.2171Y-2.7421
T2
X5.375Y-2.5
X5.425Y-2.5
X5.475Y-2.5
X1.45Y-2.175
X1.5Y-2.175
X1.55Y-2.175
X1.45Y-2.4
X1.5Y-2.4
X1.55Y-2.4
T3
X2.225Y-2.55
X2.225Y-2.95
X3.725Y-2.025
X3.725Y-2.425
X3.875Y-2.025
X3.875Y-2.425
X5.725Y-2.075
X5.725Y-2.475
X6.275Y-2.075
X6.275Y-2.475
X2.075Y-2.55
X2.075Y-2.95
X5.85Y-1.325
X6.25Y-1.325
X5.375Y-1.95
X5.375Y-2.35
X1.3Y-1.775
X1.3Y-2.175
X5.85Y-1.45
X6.25Y-1.45
X5.85Y-1.575
X6.25Y-1.575
T4
X6.425Y-1.35
X6.425Y-1.45
X6.425Y-1.55
X6.425Y-1.65
X6.425Y-1.75
X6.425Y-1.85
X0.95Y-1.025
X0.95Y-1.125
X6.2Y-1.75
X6.2Y-1.85
T5
X6.0Y-2.075
X6.0Y-2.3703
T6
X0.9Y-2.15
X1.0Y-2.15
X1.1Y-2.15
X4.5Y-1.4803
X4.6Y-1.4803
X4.7Y-1.4803
X2.0Y-2.0
X2.0Y-2.4
X1.825Y-2.0
X1.825Y-2.4
X0.9Y-2.475
X1.0Y-2.475
X1.1Y-2.475
X4.025Y-2.025
X4.025Y-2.425
T7
X3.225Y-1.925
X3.225Y-2.2203
X2.475Y-1.925
X2.475Y-2.2203
X5.725Y-3.925
X6.2171Y-3.925
T8
X6.125Y-4.5892
X6.125Y-5.475
X1.025Y-4.4892
X1.025Y-5.375
T9
X4.4709Y-5.4976
X4.4709Y-5.5976
X4.4709Y-5.6976
T10
X1.5Y-1.775
X1.7146Y-1.775
X1.9291Y-1.775
X3.125Y-1.0709
X3.125Y-1.2854
X3.125Y-1.5
X2.0862Y-3.7593
X2.3008Y-3.7593
X2.5154Y-3.7593
X3.8346Y-4.077
X4.2638Y-4.077
T11
X1.025Y-3.6563
X1.025Y-4.05
T12
X5.725Y-5.85
X5.725Y-6.25
X6.125Y-5.85
X6.125Y-6.25
T13
X3.55Y-3.925
X4.55Y-3.925
X1.8Y-3.925
X2.8Y-3.925
X4.35Y-5.1
X4.35Y-6.1
X4.099Y-1.3028
X5.099Y-1.3028
T14
X2.2Y-4.875
X2.2Y-6.375
X3.0Y-4.875
X3.0Y-6.375
T0
M30
