%TF.GenerationSoftware,KiCad,Pcbnew,(5.1.7)-1*%
%TF.CreationDate,2020-10-24T18:30:36+02:00*%
%TF.ProjectId,dcconverter,6463636f-6e76-4657-9274-65722e6b6963,rev?*%
%TF.SameCoordinates,Original*%
%TF.FileFunction,Copper,L2,Bot*%
%TF.FilePolarity,Positive*%
%FSLAX46Y46*%
G04 Gerber Fmt 4.6, Leading zero omitted, Abs format (unit mm)*
G04 Created by KiCad (PCBNEW (5.1.7)-1) date 2020-10-24 18:30:36*
%MOMM*%
%LPD*%
G01*
G04 APERTURE LIST*
%TA.AperFunction,ComponentPad*%
%ADD10C,5.000000*%
%TD*%
%TA.AperFunction,ComponentPad*%
%ADD11C,2.400000*%
%TD*%
%TA.AperFunction,ComponentPad*%
%ADD12R,2.400000X2.400000*%
%TD*%
%TA.AperFunction,ComponentPad*%
%ADD13C,4.000000*%
%TD*%
%TA.AperFunction,ComponentPad*%
%ADD14O,1.905000X2.000000*%
%TD*%
%TA.AperFunction,ComponentPad*%
%ADD15R,1.905000X2.000000*%
%TD*%
%TA.AperFunction,ComponentPad*%
%ADD16C,1.310000*%
%TD*%
%TA.AperFunction,ComponentPad*%
%ADD17R,1.800000X1.800000*%
%TD*%
%TA.AperFunction,ComponentPad*%
%ADD18C,1.800000*%
%TD*%
%TA.AperFunction,ComponentPad*%
%ADD19C,2.000000*%
%TD*%
%TA.AperFunction,ComponentPad*%
%ADD20R,2.500000X4.500000*%
%TD*%
%TA.AperFunction,ComponentPad*%
%ADD21O,2.500000X4.500000*%
%TD*%
%TA.AperFunction,ComponentPad*%
%ADD22R,2.200000X2.200000*%
%TD*%
%TA.AperFunction,ComponentPad*%
%ADD23O,2.200000X2.200000*%
%TD*%
%TA.AperFunction,ComponentPad*%
%ADD24C,3.000000*%
%TD*%
%TA.AperFunction,ComponentPad*%
%ADD25R,6.600000X3.300000*%
%TD*%
%TA.AperFunction,ComponentPad*%
%ADD26O,6.600000X3.300000*%
%TD*%
%TA.AperFunction,ComponentPad*%
%ADD27R,2.085000X2.085000*%
%TD*%
%TA.AperFunction,ComponentPad*%
%ADD28C,2.085000*%
%TD*%
%TA.AperFunction,ComponentPad*%
%ADD29R,4.500000X2.500000*%
%TD*%
%TA.AperFunction,ComponentPad*%
%ADD30O,4.500000X2.500000*%
%TD*%
%TA.AperFunction,ComponentPad*%
%ADD31R,1.050000X1.500000*%
%TD*%
%TA.AperFunction,ComponentPad*%
%ADD32O,1.050000X1.500000*%
%TD*%
%TA.AperFunction,ComponentPad*%
%ADD33C,1.600000*%
%TD*%
%TA.AperFunction,ComponentPad*%
%ADD34O,1.600000X1.600000*%
%TD*%
%TA.AperFunction,ViaPad*%
%ADD35C,5.000000*%
%TD*%
%TA.AperFunction,ViaPad*%
%ADD36C,2.000000*%
%TD*%
%TA.AperFunction,ViaPad*%
%ADD37C,3.000000*%
%TD*%
%TA.AperFunction,ViaPad*%
%ADD38C,1.000000*%
%TD*%
%TA.AperFunction,Conductor*%
%ADD39C,5.000000*%
%TD*%
%TA.AperFunction,Conductor*%
%ADD40C,2.000000*%
%TD*%
%TA.AperFunction,Conductor*%
%ADD41C,1.000000*%
%TD*%
%TA.AperFunction,Conductor*%
%ADD42C,3.000000*%
%TD*%
%TA.AperFunction,Conductor*%
%ADD43C,4.000000*%
%TD*%
G04 APERTURE END LIST*
D10*
%TO.P,L1,3*%
%TO.N,Net-(L1-Pad2)*%
X55880000Y-123825000D03*
%TO.P,L1,1*%
%TO.N,Net-(D1-Pad1)*%
X55880000Y-161925000D03*
%TO.P,L1,4*%
%TO.N,Net-(C1-Pad1)*%
X76200000Y-123825000D03*
%TO.P,L1,2*%
%TO.N,Net-(L1-Pad2)*%
X76200000Y-161925000D03*
%TD*%
D11*
%TO.P,C4,2*%
%TO.N,Net-(C1-Pad2)*%
X62865000Y-56395000D03*
D12*
%TO.P,C4,1*%
%TO.N,Net-(C4-Pad1)*%
X62865000Y-48895000D03*
%TD*%
D11*
%TO.P,C3,2*%
%TO.N,Net-(C1-Pad2)*%
X81915000Y-56395000D03*
D12*
%TO.P,C3,1*%
%TO.N,Net-(C3-Pad1)*%
X81915000Y-48895000D03*
%TD*%
D13*
%TO.P,HS-Q1,1*%
%TO.N,Net-(HS-Q1-Pad1)*%
X45720000Y-99695000D03*
X71120000Y-99695000D03*
%TD*%
D14*
%TO.P,Q8,3*%
%TO.N,Net-(Q1-Pad3)*%
X22860000Y-62865000D03*
%TO.P,Q8,2*%
%TO.N,Net-(Q5-Pad3)*%
X25400000Y-62865000D03*
D15*
%TO.P,Q8,1*%
%TO.N,Net-(C1-Pad2)*%
X27940000Y-62865000D03*
%TD*%
D16*
%TO.P,J5,2*%
%TO.N,Net-(IC1-Pad3)*%
X157480000Y-44450000D03*
%TO.P,J5,1*%
%TO.N,Net-(C1-Pad2)*%
X157480000Y-46990000D03*
%TD*%
%TO.P,J4,2*%
%TO.N,Net-(IC1-Pad3)*%
X24130000Y-26035000D03*
%TO.P,J4,1*%
%TO.N,Net-(C1-Pad2)*%
X24130000Y-28575000D03*
%TD*%
D17*
%TO.P,C1,1*%
%TO.N,Net-(C1-Pad1)*%
X145415000Y-99695000D03*
D18*
%TO.P,C1,2*%
%TO.N,Net-(C1-Pad2)*%
X157915000Y-99695000D03*
%TD*%
D19*
%TO.P,C2,1*%
%TO.N,Net-(C2-Pad1)*%
X152400000Y-52705000D03*
%TO.P,C2,2*%
%TO.N,Net-(C1-Pad2)*%
X152400000Y-60205000D03*
%TD*%
D20*
%TO.P,D1,1*%
%TO.N,Net-(D1-Pad1)*%
X97400000Y-103555000D03*
D21*
%TO.P,D1,2*%
%TO.N,Net-(C1-Pad2)*%
X108300000Y-103555000D03*
%TD*%
D22*
%TO.P,D2,1*%
%TO.N,Net-(D2-Pad1)*%
X102235000Y-51435000D03*
D23*
%TO.P,D2,2*%
%TO.N,Net-(C1-Pad2)*%
X102235000Y-61595000D03*
%TD*%
D22*
%TO.P,D3,1*%
%TO.N,Net-(D3-Pad1)*%
X50800000Y-60960000D03*
D23*
%TO.P,D3,2*%
%TO.N,Net-(D3-Pad2)*%
X50800000Y-50800000D03*
%TD*%
%TO.P,D4,2*%
%TO.N,Net-(C1-Pad2)*%
X46355000Y-60960000D03*
D22*
%TO.P,D4,1*%
%TO.N,Net-(D3-Pad2)*%
X46355000Y-50800000D03*
%TD*%
D24*
%TO.P,F1,2*%
%TO.N,Net-(F1-Pad2)*%
X26035000Y-114025000D03*
%TO.P,F1,1*%
%TO.N,Net-(F1-Pad1)*%
X26035000Y-136525000D03*
%TD*%
%TO.P,F2,1*%
%TO.N,Net-(F2-Pad1)*%
X155575000Y-139065000D03*
%TO.P,F2,2*%
%TO.N,Net-(F2-Pad2)*%
X155575000Y-116565000D03*
%TD*%
D13*
%TO.P,HS-D1,1*%
%TO.N,Net-(HS-D1-Pad1)*%
X90170000Y-99695000D03*
X115570000Y-99695000D03*
%TD*%
%TO.P,HS-IC1,1*%
%TO.N,Net-(HS-IC1-Pad1)*%
X129515001Y-33090001D03*
X104115001Y-33090001D03*
%TD*%
%TO.P,HS-Q2,1*%
%TO.N,Net-(HS-Q2-Pad1)*%
X110490000Y-154940000D03*
X110490000Y-129540000D03*
%TD*%
D15*
%TO.P,IC1,1*%
%TO.N,Net-(C3-Pad1)*%
X114300000Y-37600000D03*
D14*
%TO.P,IC1,2*%
%TO.N,Net-(C1-Pad2)*%
X116840000Y-37600000D03*
%TO.P,IC1,3*%
%TO.N,Net-(IC1-Pad3)*%
X119380000Y-37600000D03*
%TD*%
D25*
%TO.P,J1,1*%
%TO.N,Net-(F1-Pad2)*%
X26035000Y-102870000D03*
D26*
%TO.P,J1,2*%
%TO.N,Net-(C1-Pad2)*%
X26035000Y-92870000D03*
%TD*%
D16*
%TO.P,J2,1*%
%TO.N,Net-(C1-Pad2)*%
X163195000Y-46990000D03*
%TO.P,J2,2*%
%TO.N,Net-(IC1-Pad3)*%
X163195000Y-44450000D03*
%TO.P,J2,3*%
%TO.N,Net-(C2-Pad1)*%
X163195000Y-41910000D03*
%TO.P,J2,4*%
%TO.N,Net-(J2-Pad4)*%
X163195000Y-39370000D03*
%TO.P,J2,5*%
%TO.N,Net-(J2-Pad5)*%
X163195000Y-36830000D03*
%TO.P,J2,6*%
%TO.N,Net-(J2-Pad6)*%
X163195000Y-34290000D03*
%TD*%
D13*
%TO.P,J3,1*%
%TO.N,Net-(F2-Pad1)*%
X145415000Y-148590000D03*
X155575000Y-148590000D03*
%TO.P,J3,2*%
%TO.N,Net-(C1-Pad2)*%
X155575000Y-158750000D03*
X145415000Y-158750000D03*
%TD*%
D20*
%TO.P,Q1,1*%
%TO.N,Net-(F1-Pad1)*%
X52990000Y-95485000D03*
D21*
%TO.P,Q1,2*%
%TO.N,Net-(D1-Pad1)*%
X58440000Y-95485000D03*
%TO.P,Q1,3*%
%TO.N,Net-(Q1-Pad3)*%
X63890000Y-95485000D03*
%TD*%
D27*
%TO.P,Q2,1*%
%TO.N,Net-(Q10-Pad3)*%
X113560000Y-139640000D03*
D28*
%TO.P,Q2,2*%
%TO.N,Net-(F2-Pad2)*%
X113560000Y-142180000D03*
%TO.P,Q2,3*%
%TO.N,Net-(C1-Pad1)*%
X113560000Y-144720000D03*
%TD*%
D29*
%TO.P,Q3,1*%
%TO.N,Net-(C3-Pad1)*%
X79375000Y-38100000D03*
D30*
%TO.P,Q3,2*%
%TO.N,Net-(D2-Pad1)*%
X79375000Y-32650000D03*
%TO.P,Q3,3*%
%TO.N,Net-(Q3-Pad3)*%
X79375000Y-27200000D03*
%TD*%
D21*
%TO.P,Q4,3*%
%TO.N,Net-(Q4-Pad3)*%
X49000000Y-45085000D03*
%TO.P,Q4,2*%
%TO.N,Net-(D3-Pad1)*%
X43550000Y-45085000D03*
D20*
%TO.P,Q4,1*%
%TO.N,Net-(C4-Pad1)*%
X38100000Y-45085000D03*
%TD*%
D31*
%TO.P,Q5,1*%
%TO.N,Net-(Q5-Pad1)*%
X39370000Y-55245000D03*
D32*
%TO.P,Q5,3*%
%TO.N,Net-(Q5-Pad3)*%
X36830000Y-55245000D03*
%TO.P,Q5,2*%
%TO.N,Net-(Q5-Pad2)*%
X38100000Y-55245000D03*
%TD*%
%TO.P,Q6,2*%
%TO.N,Net-(Q6-Pad2)*%
X38100000Y-60960000D03*
%TO.P,Q6,3*%
%TO.N,Net-(Q5-Pad1)*%
X39370000Y-60960000D03*
D31*
%TO.P,Q6,1*%
%TO.N,Net-(C1-Pad2)*%
X36830000Y-60960000D03*
%TD*%
D15*
%TO.P,Q7,1*%
%TO.N,Net-(Q5-Pad3)*%
X22860000Y-54610000D03*
D14*
%TO.P,Q7,2*%
%TO.N,Net-(C4-Pad1)*%
X25400000Y-54610000D03*
%TO.P,Q7,3*%
%TO.N,Net-(Q1-Pad3)*%
X27940000Y-54610000D03*
%TD*%
D32*
%TO.P,Q10,2*%
%TO.N,Net-(Q10-Pad2)*%
X137795000Y-63500000D03*
%TO.P,Q10,3*%
%TO.N,Net-(Q10-Pad3)*%
X136525000Y-63500000D03*
D31*
%TO.P,Q10,1*%
%TO.N,Net-(C1-Pad2)*%
X139065000Y-63500000D03*
%TD*%
D33*
%TO.P,R1,1*%
%TO.N,Net-(C1-Pad1)*%
X145415000Y-62865000D03*
D34*
%TO.P,R1,2*%
%TO.N,Net-(C2-Pad1)*%
X145415000Y-52705000D03*
%TD*%
%TO.P,R2,2*%
%TO.N,Net-(C1-Pad2)*%
X159385000Y-62865000D03*
D33*
%TO.P,R2,1*%
%TO.N,Net-(C2-Pad1)*%
X159385000Y-52705000D03*
%TD*%
D34*
%TO.P,R3,2*%
%TO.N,Net-(D2-Pad1)*%
X98425000Y-51435000D03*
D33*
%TO.P,R3,1*%
%TO.N,Net-(F1-Pad1)*%
X98425000Y-61595000D03*
%TD*%
%TO.P,R4,1*%
%TO.N,Net-(F1-Pad1)*%
X94615000Y-61595000D03*
D34*
%TO.P,R4,2*%
%TO.N,Net-(Q3-Pad3)*%
X94615000Y-51435000D03*
%TD*%
D33*
%TO.P,R5,1*%
%TO.N,Net-(F1-Pad1)*%
X56515000Y-74930000D03*
D34*
%TO.P,R5,2*%
%TO.N,Net-(D3-Pad1)*%
X56515000Y-64770000D03*
%TD*%
%TO.P,R6,2*%
%TO.N,Net-(Q4-Pad3)*%
X52705000Y-64770000D03*
D33*
%TO.P,R6,1*%
%TO.N,Net-(F1-Pad1)*%
X52705000Y-74930000D03*
%TD*%
%TO.P,R7,1*%
%TO.N,Net-(Q5-Pad2)*%
X148590000Y-40005000D03*
D34*
%TO.P,R7,2*%
%TO.N,Net-(J2-Pad4)*%
X158750000Y-40005000D03*
%TD*%
%TO.P,R8,2*%
%TO.N,Net-(J2-Pad5)*%
X158750000Y-36830000D03*
D33*
%TO.P,R8,1*%
%TO.N,Net-(Q6-Pad2)*%
X148590000Y-36830000D03*
%TD*%
%TO.P,R9,1*%
%TO.N,Net-(C4-Pad1)*%
X33020000Y-45085000D03*
D34*
%TO.P,R9,2*%
%TO.N,Net-(Q5-Pad3)*%
X33020000Y-55245000D03*
%TD*%
%TO.P,R10,2*%
%TO.N,Net-(Q10-Pad3)*%
X136525000Y-59690000D03*
D33*
%TO.P,R10,1*%
%TO.N,Net-(C3-Pad1)*%
X136525000Y-49530000D03*
%TD*%
%TO.P,R11,1*%
%TO.N,Net-(Q10-Pad2)*%
X148590000Y-33655000D03*
D34*
%TO.P,R11,2*%
%TO.N,Net-(J2-Pad6)*%
X158750000Y-33655000D03*
%TD*%
D35*
%TO.N,Net-(C1-Pad2)*%
X142875000Y-134620000D03*
X157915000Y-69650000D03*
X101600000Y-92710000D03*
X101600000Y-69850000D03*
D36*
X62865000Y-69850000D03*
X81915000Y-69850000D03*
%TO.N,Net-(C3-Pad1)*%
X113030000Y-43180000D03*
%TO.N,Net-(D2-Pad1)*%
X92710000Y-41275000D03*
X91440000Y-33020000D03*
%TO.N,Net-(F1-Pad1)*%
X94615000Y-79375000D03*
%TO.N,Net-(IC1-Pad3)*%
X144145000Y-44450000D03*
D37*
%TO.N,Net-(Q1-Pad3)*%
X59690000Y-86995000D03*
D38*
%TO.N,Net-(Q10-Pad3)*%
X131445000Y-123825000D03*
%TO.N,Net-(Q5-Pad2)*%
X41910000Y-57150000D03*
%TO.N,Net-(Q6-Pad2)*%
X43815000Y-57150000D03*
%TD*%
D39*
%TO.N,Net-(C1-Pad1)*%
X128905000Y-116205000D02*
X109855000Y-116205000D01*
X145415000Y-99695000D02*
X128905000Y-116205000D01*
X102235000Y-123825000D02*
X109855000Y-116205000D01*
X76200000Y-123825000D02*
X102235000Y-123825000D01*
X102235000Y-123825000D02*
X102235000Y-140335000D01*
X102235000Y-140335000D02*
X106045000Y-144145000D01*
D40*
X106620000Y-144720000D02*
X113560000Y-144720000D01*
X106045000Y-144145000D02*
X106620000Y-144720000D01*
D39*
%TO.N,Net-(C1-Pad2)*%
X145415000Y-158750000D02*
X155575000Y-158750000D01*
X145415000Y-158750000D02*
X139700000Y-158750000D01*
X139700000Y-158750000D02*
X134620000Y-153670000D01*
X134620000Y-142875000D02*
X142875000Y-134620000D01*
X134620000Y-153670000D02*
X134620000Y-142875000D01*
X108300000Y-103555000D02*
X108300000Y-99410000D01*
X108300000Y-99410000D02*
X101600000Y-92710000D01*
X101600000Y-92710000D02*
X101600000Y-92710000D01*
X157715000Y-69850000D02*
X157915000Y-69650000D01*
X50800000Y-69850000D02*
X157715000Y-69850000D01*
X26035000Y-92870000D02*
X27780000Y-92870000D01*
D40*
X156725000Y-60205000D02*
X159385000Y-62865000D01*
X152400000Y-60205000D02*
X156725000Y-60205000D01*
X159385000Y-68180000D02*
X157915000Y-69650000D01*
X159385000Y-62865000D02*
X159385000Y-68180000D01*
X159385000Y-62865000D02*
X163195000Y-59055000D01*
X163195000Y-59055000D02*
X163195000Y-49530000D01*
X51435000Y-69215000D02*
X50800000Y-69850000D01*
X29210000Y-62865000D02*
X43497500Y-77152500D01*
X27940000Y-62865000D02*
X29210000Y-62865000D01*
D39*
X43497500Y-77152500D02*
X50800000Y-69850000D01*
X27780000Y-92870000D02*
X43497500Y-77152500D01*
D41*
X31115000Y-60960000D02*
X29210000Y-62865000D01*
X36830000Y-60960000D02*
X31115000Y-60960000D01*
X139065000Y-63500000D02*
X140335000Y-63500000D01*
X143630000Y-60205000D02*
X152400000Y-60205000D01*
X140335000Y-63500000D02*
X143630000Y-60205000D01*
D40*
X46355000Y-65405000D02*
X50800000Y-69850000D01*
X46355000Y-60960000D02*
X46355000Y-65405000D01*
X116840000Y-46990000D02*
X102235000Y-61595000D01*
X116840000Y-37600000D02*
X116840000Y-46990000D01*
X163195000Y-49530000D02*
X163195000Y-46990000D01*
X163195000Y-46990000D02*
X157480000Y-46990000D01*
X24130000Y-28575000D02*
X24130000Y-31115000D01*
X24130000Y-31115000D02*
X19685000Y-35560000D01*
X19685000Y-35560000D02*
X19685000Y-65405000D01*
X19685000Y-65405000D02*
X20955000Y-66675000D01*
X27940000Y-65865000D02*
X27940000Y-62865000D01*
X27130000Y-66675000D02*
X27940000Y-65865000D01*
X20955000Y-66675000D02*
X27130000Y-66675000D01*
%TO.N,Net-(C2-Pad1)*%
X152400000Y-52705000D02*
X145415000Y-52705000D01*
D41*
X163195000Y-41910000D02*
X155575000Y-41910000D01*
X155575000Y-41910000D02*
X154940000Y-42545000D01*
X154940000Y-42545000D02*
X154940000Y-52705000D01*
D40*
X154940000Y-52705000D02*
X152400000Y-52705000D01*
X159385000Y-52705000D02*
X154940000Y-52705000D01*
%TO.N,Net-(C3-Pad1)*%
X114300000Y-37600000D02*
X114165000Y-37600000D01*
X113665000Y-38100000D02*
X79375000Y-38100000D01*
X114165000Y-37600000D02*
X113665000Y-38100000D01*
X81915000Y-40640000D02*
X79375000Y-38100000D01*
X81915000Y-48895000D02*
X81915000Y-40640000D01*
X114300000Y-37600000D02*
X114300000Y-38100000D01*
X114300000Y-38100000D02*
X113665000Y-38735000D01*
X113665000Y-38735000D02*
X113665000Y-42545000D01*
X113665000Y-42545000D02*
X113030000Y-43180000D01*
X113030000Y-43180000D02*
X113030000Y-43180000D01*
%TO.N,Net-(C4-Pad1)*%
X25400000Y-52705000D02*
X25400000Y-54610000D01*
X33020000Y-45085000D02*
X25400000Y-52705000D01*
X33020000Y-45085000D02*
X38100000Y-45085000D01*
X38100000Y-45085000D02*
X38100000Y-43815000D01*
X38100000Y-43815000D02*
X41910000Y-40005000D01*
X53975000Y-40005000D02*
X62865000Y-48895000D01*
X41910000Y-40005000D02*
X53975000Y-40005000D01*
D39*
%TO.N,Net-(D1-Pad1)*%
X52070000Y-161925000D02*
X55880000Y-161925000D01*
X46355000Y-116840000D02*
X46355000Y-156210000D01*
X46355000Y-156210000D02*
X52070000Y-161925000D01*
X48895000Y-114300000D02*
X46355000Y-116840000D01*
X53975000Y-114300000D02*
X48895000Y-114300000D01*
X59690000Y-108585000D02*
X53975000Y-114300000D01*
D42*
X58440000Y-107335000D02*
X59690000Y-108585000D01*
X58440000Y-95485000D02*
X58440000Y-107335000D01*
D39*
X97400000Y-103555000D02*
X97400000Y-105165000D01*
X93980000Y-108585000D02*
X59690000Y-108585000D01*
X97400000Y-105165000D02*
X93980000Y-108585000D01*
D40*
%TO.N,Net-(D2-Pad1)*%
X102235000Y-51435000D02*
X98425000Y-51435000D01*
X98425000Y-51435000D02*
X98425000Y-46990000D01*
X98425000Y-46990000D02*
X92710000Y-41275000D01*
X92710000Y-41275000D02*
X92710000Y-41275000D01*
X79745000Y-33020000D02*
X79375000Y-32650000D01*
X91440000Y-33020000D02*
X79745000Y-33020000D01*
%TO.N,Net-(D3-Pad1)*%
X52705000Y-60960000D02*
X50800000Y-60960000D01*
X56515000Y-64770000D02*
X52705000Y-60960000D01*
%TO.N,Net-(D3-Pad2)*%
X46355000Y-50800000D02*
X50800000Y-50800000D01*
D39*
%TO.N,Net-(F1-Pad2)*%
X26035000Y-102870000D02*
X26035000Y-114025000D01*
%TO.N,Net-(F1-Pad1)*%
X26035000Y-136525000D02*
X29845000Y-136525000D01*
X29845000Y-136525000D02*
X38735000Y-127635000D01*
X38735000Y-127635000D02*
X38735000Y-96520000D01*
D43*
X52305000Y-95485000D02*
X46037500Y-89217500D01*
X52990000Y-95485000D02*
X52305000Y-95485000D01*
D39*
X46037500Y-89217500D02*
X55880000Y-79375000D01*
X38735000Y-96520000D02*
X46037500Y-89217500D01*
D40*
X56515000Y-78740000D02*
X55880000Y-79375000D01*
X56515000Y-74930000D02*
X56515000Y-78740000D01*
X56515000Y-74930000D02*
X52705000Y-74930000D01*
X98425000Y-61595000D02*
X94615000Y-61595000D01*
X57150000Y-79375000D02*
X56515000Y-78740000D01*
X94615000Y-79375000D02*
X57150000Y-79375000D01*
D39*
%TO.N,Net-(F2-Pad1)*%
X145415000Y-148590000D02*
X155575000Y-148590000D01*
X155575000Y-148590000D02*
X155575000Y-139065000D01*
D40*
%TO.N,Net-(F2-Pad2)*%
X113560000Y-142180000D02*
X118685000Y-142180000D01*
D39*
X118685000Y-142180000D02*
X123885000Y-142180000D01*
X149500000Y-116565000D02*
X155575000Y-116565000D01*
X123885000Y-142180000D02*
X149500000Y-116565000D01*
D40*
%TO.N,Net-(IC1-Pad3)*%
X163195000Y-44450000D02*
X157480000Y-44450000D01*
X126230000Y-44450000D02*
X119380000Y-37600000D01*
X144145000Y-44450000D02*
X126230000Y-44450000D01*
X119380000Y-34600000D02*
X106370000Y-21590000D01*
X119380000Y-37600000D02*
X119380000Y-34600000D01*
X28575000Y-21590000D02*
X24130000Y-26035000D01*
X106370000Y-21590000D02*
X28575000Y-21590000D01*
D41*
%TO.N,Net-(J2-Pad4)*%
X158750000Y-40005000D02*
X161290000Y-40005000D01*
X161925000Y-39370000D02*
X163195000Y-39370000D01*
X161290000Y-40005000D02*
X161925000Y-39370000D01*
%TO.N,Net-(J2-Pad5)*%
X163195000Y-36830000D02*
X158750000Y-36830000D01*
%TO.N,Net-(J2-Pad6)*%
X159385000Y-34290000D02*
X158750000Y-33655000D01*
X163195000Y-34290000D02*
X159385000Y-34290000D01*
D42*
%TO.N,Net-(Q1-Pad3)*%
X63890000Y-95485000D02*
X63890000Y-91195000D01*
X63890000Y-91195000D02*
X59690000Y-86995000D01*
X59690000Y-86995000D02*
X59690000Y-86995000D01*
D41*
%TO.N,Net-(Q10-Pad3)*%
X136525000Y-63500000D02*
X136525000Y-59690000D01*
X129375000Y-123825000D02*
X113560000Y-139640000D01*
X131445000Y-123825000D02*
X129375000Y-123825000D01*
%TO.N,Net-(Q5-Pad1)*%
X39370000Y-60960000D02*
X39370000Y-55245000D01*
D40*
%TO.N,Net-(Q5-Pad3)*%
X25400000Y-62865000D02*
X25400000Y-60960000D01*
X22860000Y-58420000D02*
X22860000Y-54610000D01*
X25400000Y-60960000D02*
X22860000Y-58420000D01*
D41*
X36830000Y-55245000D02*
X33020000Y-55245000D01*
D40*
X33020000Y-55245000D02*
X28575000Y-59690000D01*
X26670000Y-59690000D02*
X25400000Y-60960000D01*
X28575000Y-59690000D02*
X26670000Y-59690000D01*
D41*
%TO.N,Net-(Q5-Pad2)*%
X148590000Y-47625000D02*
X148590000Y-40005000D01*
X147955000Y-48260000D02*
X148590000Y-47625000D01*
X143510000Y-48260000D02*
X147955000Y-48260000D01*
X140970000Y-50800000D02*
X143510000Y-48260000D01*
X53975000Y-58420000D02*
X61595000Y-66040000D01*
X41910000Y-58420000D02*
X42545000Y-59055000D01*
X139700000Y-56515000D02*
X140970000Y-55245000D01*
X42545000Y-59055000D02*
X45085000Y-59055000D01*
X135890000Y-56515000D02*
X139700000Y-56515000D01*
X45085000Y-59055000D02*
X45720000Y-58420000D01*
X133985000Y-58420000D02*
X135890000Y-56515000D01*
X45720000Y-58420000D02*
X53975000Y-58420000D01*
X61595000Y-66040000D02*
X131445000Y-66040000D01*
X131445000Y-66040000D02*
X133985000Y-63500000D01*
X133985000Y-63500000D02*
X133985000Y-58420000D01*
X41910000Y-57150000D02*
X41910000Y-58420000D01*
X140970000Y-55245000D02*
X140970000Y-50800000D01*
%TO.N,Net-(Q6-Pad2)*%
X146685000Y-45720000D02*
X146685000Y-38735000D01*
X43815000Y-57150000D02*
X44450000Y-56515000D01*
X44450000Y-56515000D02*
X55245000Y-56515000D01*
X130810000Y-64135000D02*
X132080000Y-62865000D01*
X55245000Y-56515000D02*
X62865000Y-64135000D01*
X132080000Y-62865000D02*
X132080000Y-57785000D01*
X62865000Y-64135000D02*
X130810000Y-64135000D01*
X135255000Y-54610000D02*
X138430000Y-54610000D01*
X132080000Y-57785000D02*
X135255000Y-54610000D01*
X138430000Y-54610000D02*
X139065000Y-53975000D01*
X139065000Y-53975000D02*
X139065000Y-50165000D01*
X142875000Y-46355000D02*
X146050000Y-46355000D01*
X146685000Y-38735000D02*
X148590000Y-36830000D01*
X139065000Y-50165000D02*
X142875000Y-46355000D01*
X146050000Y-46355000D02*
X146685000Y-45720000D01*
%TO.N,Net-(Q10-Pad2)*%
X151130000Y-36195000D02*
X148590000Y-33655000D01*
X151130000Y-49530000D02*
X151130000Y-36195000D01*
X150495000Y-50165000D02*
X151130000Y-49530000D01*
X144780000Y-50165000D02*
X150495000Y-50165000D01*
X142875000Y-52070000D02*
X144780000Y-50165000D01*
X142875000Y-56240843D02*
X142875000Y-52070000D01*
X137795000Y-61320843D02*
X142875000Y-56240843D01*
X137795000Y-63500000D02*
X137795000Y-61320843D01*
D39*
%TO.N,Net-(L1-Pad2)*%
X55880000Y-141605000D02*
X76200000Y-161925000D01*
X55880000Y-123825000D02*
X55880000Y-141605000D01*
%TD*%
M02*
