M48
; DRILL file {KiCad (5.1.7)-1} date 10/14/20 23:47:03
; FORMAT={-:-/ absolute / inch / decimal}
; #@! TF.CreationDate,2020-10-14T23:47:03+02:00
; #@! TF.GenerationSoftware,Kicad,Pcbnew,(5.1.7)-1
; #@! TF.FileFunction,Plated,1,2,PTH
FMAT,2
INCH
T1C0.0472
T2C0.0512
T3C0.0520
T4C0.0630
T5C0.0787
%
G90
G05
T1
X2.75Y-1.4
X3.3Y-0.7547
X2.45Y-0.7547
X2.45Y-1.05
X2.15Y-1.4
X3.3Y-1.05
T2
X1.25Y-2.15
X2.1358Y-2.15
X0.8Y-1.4142
X0.8Y-2.3
T3
X0.8Y-0.7063
X0.8Y-0.9031
X0.8Y-1.1
X3.85Y-0.85
X4.0469Y-0.85
T4
X1.3Y-1.4
X1.9Y-1.4
X1.3Y-1.05
X1.9Y-1.05
X2.15Y-1.7
X2.75Y-1.7
X1.3Y-0.7
X1.9Y-0.7
X1.3Y-1.7
X1.9Y-1.7
T5
X3.1165Y-1.5638
X3.1165Y-2.1138
T0
M30
