%TF.GenerationSoftware,KiCad,Pcbnew,(5.1.7)-1*%
%TF.CreationDate,2020-10-14T23:46:55+02:00*%
%TF.ProjectId,rectifier,72656374-6966-4696-9572-2e6b69636164,rev?*%
%TF.SameCoordinates,Original*%
%TF.FileFunction,Soldermask,Bot*%
%TF.FilePolarity,Negative*%
%FSLAX46Y46*%
G04 Gerber Fmt 4.6, Leading zero omitted, Abs format (unit mm)*
G04 Created by KiCad (PCBNEW (5.1.7)-1) date 2020-10-14 23:46:55*
%MOMM*%
%LPD*%
G01*
G04 APERTURE LIST*
%ADD10C,1.524000*%
%ADD11C,3.000000*%
%ADD12R,2.400000X2.400000*%
%ADD13C,2.400000*%
%ADD14O,3.200000X3.200000*%
%ADD15R,3.200000X3.200000*%
%ADD16C,2.700000*%
%ADD17R,3.960000X1.980000*%
%ADD18O,3.960000X1.980000*%
%ADD19R,1.980000X3.960000*%
%ADD20O,1.980000X3.960000*%
%ADD21O,2.400000X2.400000*%
G04 APERTURE END LIST*
D10*
%TO.C,J4*%
X85520000Y-48610000D03*
X75360000Y-58770000D03*
X75360000Y-48610000D03*
X85520000Y-58770000D03*
D11*
X79160000Y-53690000D03*
%TD*%
D10*
%TO.C,J3*%
X85520000Y-34640000D03*
X75360000Y-44800000D03*
X75360000Y-34640000D03*
X85520000Y-44800000D03*
D11*
X79160000Y-39720000D03*
%TD*%
D12*
%TO.C,C1*%
X62230000Y-26670000D03*
D13*
X62230000Y-19170000D03*
%TD*%
%TO.C,C2*%
X83820000Y-19170000D03*
D12*
X83820000Y-26670000D03*
%TD*%
D14*
%TO.C,D1*%
X33020000Y-35560000D03*
D15*
X48260000Y-35560000D03*
%TD*%
%TO.C,D2*%
X33020000Y-43180000D03*
D14*
X48260000Y-43180000D03*
%TD*%
%TO.C,D3*%
X33020000Y-26670000D03*
D15*
X48260000Y-26670000D03*
%TD*%
%TO.C,D4*%
X33020000Y-17780000D03*
D14*
X48260000Y-17780000D03*
%TD*%
D15*
%TO.C,D5*%
X54610000Y-43180000D03*
D14*
X69850000Y-43180000D03*
%TD*%
D11*
%TO.C,F1*%
X20320000Y-58420000D03*
X20320000Y-35920000D03*
D16*
X20320000Y-47170000D03*
%TD*%
%TO.C,F2*%
X43000000Y-54610000D03*
D11*
X54250000Y-54610000D03*
X31750000Y-54610000D03*
%TD*%
D17*
%TO.C,J1*%
X20320000Y-27940000D03*
D18*
X20320000Y-22940000D03*
X20320000Y-17940000D03*
%TD*%
D19*
%TO.C,J2*%
X97790000Y-21590000D03*
D20*
X102790000Y-21590000D03*
%TD*%
D13*
%TO.C,R1*%
X69850000Y-35560000D03*
D21*
X54610000Y-35560000D03*
%TD*%
M02*
