%TF.GenerationSoftware,KiCad,Pcbnew,(5.1.7)-1*%
%TF.CreationDate,2020-10-14T23:46:55+02:00*%
%TF.ProjectId,rectifier,72656374-6966-4696-9572-2e6b69636164,rev?*%
%TF.SameCoordinates,Original*%
%TF.FileFunction,Legend,Top*%
%TF.FilePolarity,Positive*%
%FSLAX46Y46*%
G04 Gerber Fmt 4.6, Leading zero omitted, Abs format (unit mm)*
G04 Created by KiCad (PCBNEW (5.1.7)-1) date 2020-10-14 23:46:55*
%MOMM*%
%LPD*%
G01*
G04 APERTURE LIST*
%ADD10C,0.120000*%
%ADD11C,0.150000*%
G04 APERTURE END LIST*
D10*
%TO.C,J4*%
X73660000Y-59690000D02*
X106660000Y-59690000D01*
X106660000Y-59690000D02*
X106660000Y-47690000D01*
X73660000Y-47690000D02*
X106660000Y-47690000D01*
X73660000Y-59690000D02*
X73660000Y-47690000D01*
%TO.C,J3*%
X73660000Y-45720000D02*
X106660000Y-45720000D01*
X106660000Y-45720000D02*
X106660000Y-33720000D01*
X73660000Y-33720000D02*
X106660000Y-33720000D01*
X73660000Y-45720000D02*
X73660000Y-33720000D01*
%TO.C,C1*%
X71350000Y-22920000D02*
G75*
G03*
X71350000Y-22920000I-9120000J0D01*
G01*
X53149000Y-22920000D02*
X71311000Y-22920000D01*
X53150000Y-22880000D02*
X71310000Y-22880000D01*
X53150000Y-22840000D02*
X71310000Y-22840000D01*
X53150000Y-22800000D02*
X71310000Y-22800000D01*
X53151000Y-22760000D02*
X71309000Y-22760000D01*
X53152000Y-22720000D02*
X71308000Y-22720000D01*
X53153000Y-22680000D02*
X71307000Y-22680000D01*
X53154000Y-22640000D02*
X71306000Y-22640000D01*
X53155000Y-22600000D02*
X71305000Y-22600000D01*
X53157000Y-22560000D02*
X71303000Y-22560000D01*
X53158000Y-22520000D02*
X71302000Y-22520000D01*
X53160000Y-22480000D02*
X71300000Y-22480000D01*
X53162000Y-22440000D02*
X71298000Y-22440000D01*
X53164000Y-22400000D02*
X71296000Y-22400000D01*
X53167000Y-22360000D02*
X71293000Y-22360000D01*
X53169000Y-22320000D02*
X71291000Y-22320000D01*
X53172000Y-22280000D02*
X71288000Y-22280000D01*
X53175000Y-22240000D02*
X71285000Y-22240000D01*
X53178000Y-22199000D02*
X71282000Y-22199000D01*
X53181000Y-22159000D02*
X71279000Y-22159000D01*
X53185000Y-22119000D02*
X71275000Y-22119000D01*
X53188000Y-22079000D02*
X71272000Y-22079000D01*
X53192000Y-22039000D02*
X71268000Y-22039000D01*
X53196000Y-21999000D02*
X71264000Y-21999000D01*
X53200000Y-21959000D02*
X71260000Y-21959000D01*
X53204000Y-21919000D02*
X71256000Y-21919000D01*
X53209000Y-21879000D02*
X71251000Y-21879000D01*
X53214000Y-21839000D02*
X71246000Y-21839000D01*
X53219000Y-21799000D02*
X71241000Y-21799000D01*
X53224000Y-21759000D02*
X71236000Y-21759000D01*
X53229000Y-21719000D02*
X71231000Y-21719000D01*
X53234000Y-21679000D02*
X71226000Y-21679000D01*
X53240000Y-21639000D02*
X71220000Y-21639000D01*
X53246000Y-21599000D02*
X71214000Y-21599000D01*
X53251000Y-21559000D02*
X71209000Y-21559000D01*
X53258000Y-21519000D02*
X71202000Y-21519000D01*
X53264000Y-21479000D02*
X71196000Y-21479000D01*
X53270000Y-21439000D02*
X71190000Y-21439000D01*
X53277000Y-21399000D02*
X71183000Y-21399000D01*
X53284000Y-21359000D02*
X71176000Y-21359000D01*
X53291000Y-21319000D02*
X71169000Y-21319000D01*
X53298000Y-21279000D02*
X71162000Y-21279000D01*
X53306000Y-21239000D02*
X71154000Y-21239000D01*
X53313000Y-21199000D02*
X71147000Y-21199000D01*
X53321000Y-21159000D02*
X71139000Y-21159000D01*
X53329000Y-21119000D02*
X71131000Y-21119000D01*
X53337000Y-21079000D02*
X71123000Y-21079000D01*
X53345000Y-21039000D02*
X71115000Y-21039000D01*
X53354000Y-20999000D02*
X71106000Y-20999000D01*
X53363000Y-20959000D02*
X71097000Y-20959000D01*
X53372000Y-20919000D02*
X71088000Y-20919000D01*
X53381000Y-20879000D02*
X71079000Y-20879000D01*
X53390000Y-20839000D02*
X71070000Y-20839000D01*
X53399000Y-20799000D02*
X71061000Y-20799000D01*
X53409000Y-20759000D02*
X71051000Y-20759000D01*
X53419000Y-20719000D02*
X71041000Y-20719000D01*
X53429000Y-20679000D02*
X71031000Y-20679000D01*
X53439000Y-20639000D02*
X71021000Y-20639000D01*
X53450000Y-20599000D02*
X60790000Y-20599000D01*
X63670000Y-20599000D02*
X71010000Y-20599000D01*
X53460000Y-20559000D02*
X60790000Y-20559000D01*
X63670000Y-20559000D02*
X71000000Y-20559000D01*
X53471000Y-20519000D02*
X60790000Y-20519000D01*
X63670000Y-20519000D02*
X70989000Y-20519000D01*
X53482000Y-20479000D02*
X60790000Y-20479000D01*
X63670000Y-20479000D02*
X70978000Y-20479000D01*
X53493000Y-20439000D02*
X60790000Y-20439000D01*
X63670000Y-20439000D02*
X70967000Y-20439000D01*
X53505000Y-20399000D02*
X60790000Y-20399000D01*
X63670000Y-20399000D02*
X70955000Y-20399000D01*
X53516000Y-20359000D02*
X60790000Y-20359000D01*
X63670000Y-20359000D02*
X70944000Y-20359000D01*
X53528000Y-20319000D02*
X60790000Y-20319000D01*
X63670000Y-20319000D02*
X70932000Y-20319000D01*
X53540000Y-20279000D02*
X60790000Y-20279000D01*
X63670000Y-20279000D02*
X70920000Y-20279000D01*
X53552000Y-20239000D02*
X60790000Y-20239000D01*
X63670000Y-20239000D02*
X70908000Y-20239000D01*
X53565000Y-20199000D02*
X60790000Y-20199000D01*
X63670000Y-20199000D02*
X70895000Y-20199000D01*
X53577000Y-20159000D02*
X60790000Y-20159000D01*
X63670000Y-20159000D02*
X70883000Y-20159000D01*
X53590000Y-20119000D02*
X60790000Y-20119000D01*
X63670000Y-20119000D02*
X70870000Y-20119000D01*
X53603000Y-20079000D02*
X60790000Y-20079000D01*
X63670000Y-20079000D02*
X70857000Y-20079000D01*
X53616000Y-20039000D02*
X60790000Y-20039000D01*
X63670000Y-20039000D02*
X70844000Y-20039000D01*
X53630000Y-19999000D02*
X60790000Y-19999000D01*
X63670000Y-19999000D02*
X70830000Y-19999000D01*
X53643000Y-19959000D02*
X60790000Y-19959000D01*
X63670000Y-19959000D02*
X70817000Y-19959000D01*
X53657000Y-19919000D02*
X60790000Y-19919000D01*
X63670000Y-19919000D02*
X70803000Y-19919000D01*
X53671000Y-19879000D02*
X60790000Y-19879000D01*
X63670000Y-19879000D02*
X70789000Y-19879000D01*
X53685000Y-19839000D02*
X60790000Y-19839000D01*
X63670000Y-19839000D02*
X70775000Y-19839000D01*
X53700000Y-19799000D02*
X60790000Y-19799000D01*
X63670000Y-19799000D02*
X70760000Y-19799000D01*
X53714000Y-19759000D02*
X60790000Y-19759000D01*
X63670000Y-19759000D02*
X70746000Y-19759000D01*
X53729000Y-19719000D02*
X60790000Y-19719000D01*
X63670000Y-19719000D02*
X70731000Y-19719000D01*
X53744000Y-19679000D02*
X60790000Y-19679000D01*
X63670000Y-19679000D02*
X70716000Y-19679000D01*
X53760000Y-19639000D02*
X60790000Y-19639000D01*
X63670000Y-19639000D02*
X70700000Y-19639000D01*
X53775000Y-19599000D02*
X60790000Y-19599000D01*
X63670000Y-19599000D02*
X70685000Y-19599000D01*
X53791000Y-19559000D02*
X60790000Y-19559000D01*
X63670000Y-19559000D02*
X70669000Y-19559000D01*
X53807000Y-19519000D02*
X60790000Y-19519000D01*
X63670000Y-19519000D02*
X70653000Y-19519000D01*
X53823000Y-19479000D02*
X60790000Y-19479000D01*
X63670000Y-19479000D02*
X70637000Y-19479000D01*
X53840000Y-19439000D02*
X60790000Y-19439000D01*
X63670000Y-19439000D02*
X70620000Y-19439000D01*
X53856000Y-19399000D02*
X60790000Y-19399000D01*
X63670000Y-19399000D02*
X70604000Y-19399000D01*
X53873000Y-19359000D02*
X60790000Y-19359000D01*
X63670000Y-19359000D02*
X70587000Y-19359000D01*
X53890000Y-19319000D02*
X60790000Y-19319000D01*
X63670000Y-19319000D02*
X70570000Y-19319000D01*
X53907000Y-19279000D02*
X60790000Y-19279000D01*
X63670000Y-19279000D02*
X70553000Y-19279000D01*
X53925000Y-19239000D02*
X60790000Y-19239000D01*
X63670000Y-19239000D02*
X70535000Y-19239000D01*
X53943000Y-19199000D02*
X60790000Y-19199000D01*
X63670000Y-19199000D02*
X70517000Y-19199000D01*
X53961000Y-19159000D02*
X60790000Y-19159000D01*
X63670000Y-19159000D02*
X70499000Y-19159000D01*
X53979000Y-19119000D02*
X60790000Y-19119000D01*
X63670000Y-19119000D02*
X70481000Y-19119000D01*
X53997000Y-19079000D02*
X60790000Y-19079000D01*
X63670000Y-19079000D02*
X70463000Y-19079000D01*
X54016000Y-19039000D02*
X60790000Y-19039000D01*
X63670000Y-19039000D02*
X70444000Y-19039000D01*
X54035000Y-18999000D02*
X60790000Y-18999000D01*
X63670000Y-18999000D02*
X70425000Y-18999000D01*
X54054000Y-18959000D02*
X60790000Y-18959000D01*
X63670000Y-18959000D02*
X70406000Y-18959000D01*
X54074000Y-18919000D02*
X60790000Y-18919000D01*
X63670000Y-18919000D02*
X70386000Y-18919000D01*
X54093000Y-18879000D02*
X60790000Y-18879000D01*
X63670000Y-18879000D02*
X70367000Y-18879000D01*
X54113000Y-18839000D02*
X60790000Y-18839000D01*
X63670000Y-18839000D02*
X70347000Y-18839000D01*
X54133000Y-18799000D02*
X60790000Y-18799000D01*
X63670000Y-18799000D02*
X70327000Y-18799000D01*
X54154000Y-18759000D02*
X60790000Y-18759000D01*
X63670000Y-18759000D02*
X70306000Y-18759000D01*
X54174000Y-18719000D02*
X60790000Y-18719000D01*
X63670000Y-18719000D02*
X70286000Y-18719000D01*
X54195000Y-18679000D02*
X60790000Y-18679000D01*
X63670000Y-18679000D02*
X70265000Y-18679000D01*
X54216000Y-18639000D02*
X60790000Y-18639000D01*
X63670000Y-18639000D02*
X70244000Y-18639000D01*
X54238000Y-18599000D02*
X60790000Y-18599000D01*
X63670000Y-18599000D02*
X70222000Y-18599000D01*
X54259000Y-18559000D02*
X60790000Y-18559000D01*
X63670000Y-18559000D02*
X70201000Y-18559000D01*
X54281000Y-18519000D02*
X60790000Y-18519000D01*
X63670000Y-18519000D02*
X70179000Y-18519000D01*
X54303000Y-18479000D02*
X60790000Y-18479000D01*
X63670000Y-18479000D02*
X70157000Y-18479000D01*
X54326000Y-18439000D02*
X60790000Y-18439000D01*
X63670000Y-18439000D02*
X70134000Y-18439000D01*
X54348000Y-18399000D02*
X60790000Y-18399000D01*
X63670000Y-18399000D02*
X70112000Y-18399000D01*
X54371000Y-18359000D02*
X60790000Y-18359000D01*
X63670000Y-18359000D02*
X70089000Y-18359000D01*
X54395000Y-18319000D02*
X60790000Y-18319000D01*
X63670000Y-18319000D02*
X70065000Y-18319000D01*
X54418000Y-18279000D02*
X60790000Y-18279000D01*
X63670000Y-18279000D02*
X70042000Y-18279000D01*
X54442000Y-18239000D02*
X60790000Y-18239000D01*
X63670000Y-18239000D02*
X70018000Y-18239000D01*
X54466000Y-18199000D02*
X60790000Y-18199000D01*
X63670000Y-18199000D02*
X69994000Y-18199000D01*
X54490000Y-18159000D02*
X60790000Y-18159000D01*
X63670000Y-18159000D02*
X69970000Y-18159000D01*
X54515000Y-18119000D02*
X60790000Y-18119000D01*
X63670000Y-18119000D02*
X69945000Y-18119000D01*
X54540000Y-18079000D02*
X60790000Y-18079000D01*
X63670000Y-18079000D02*
X69920000Y-18079000D01*
X54565000Y-18039000D02*
X60790000Y-18039000D01*
X63670000Y-18039000D02*
X69895000Y-18039000D01*
X54590000Y-17999000D02*
X60790000Y-17999000D01*
X63670000Y-17999000D02*
X69870000Y-17999000D01*
X54616000Y-17959000D02*
X60790000Y-17959000D01*
X63670000Y-17959000D02*
X69844000Y-17959000D01*
X54642000Y-17919000D02*
X60790000Y-17919000D01*
X63670000Y-17919000D02*
X69818000Y-17919000D01*
X54669000Y-17879000D02*
X60790000Y-17879000D01*
X63670000Y-17879000D02*
X69791000Y-17879000D01*
X54695000Y-17839000D02*
X60790000Y-17839000D01*
X63670000Y-17839000D02*
X69765000Y-17839000D01*
X54722000Y-17799000D02*
X60790000Y-17799000D01*
X63670000Y-17799000D02*
X69738000Y-17799000D01*
X54750000Y-17759000D02*
X60790000Y-17759000D01*
X63670000Y-17759000D02*
X69710000Y-17759000D01*
X54777000Y-17719000D02*
X69683000Y-17719000D01*
X54805000Y-17679000D02*
X69655000Y-17679000D01*
X54833000Y-17639000D02*
X69627000Y-17639000D01*
X54862000Y-17599000D02*
X69598000Y-17599000D01*
X54891000Y-17559000D02*
X69569000Y-17559000D01*
X54920000Y-17519000D02*
X69540000Y-17519000D01*
X54950000Y-17479000D02*
X69510000Y-17479000D01*
X54980000Y-17439000D02*
X69480000Y-17439000D01*
X55010000Y-17399000D02*
X69450000Y-17399000D01*
X55040000Y-17359000D02*
X69420000Y-17359000D01*
X55071000Y-17319000D02*
X69389000Y-17319000D01*
X55103000Y-17279000D02*
X69357000Y-17279000D01*
X55134000Y-17239000D02*
X69326000Y-17239000D01*
X55166000Y-17199000D02*
X69294000Y-17199000D01*
X55199000Y-17159000D02*
X69261000Y-17159000D01*
X55231000Y-17119000D02*
X69229000Y-17119000D01*
X55265000Y-17079000D02*
X69195000Y-17079000D01*
X55298000Y-17039000D02*
X69162000Y-17039000D01*
X55332000Y-16999000D02*
X69128000Y-16999000D01*
X55366000Y-16959000D02*
X69094000Y-16959000D01*
X55401000Y-16919000D02*
X69059000Y-16919000D01*
X55436000Y-16879000D02*
X69024000Y-16879000D01*
X55472000Y-16839000D02*
X68988000Y-16839000D01*
X55508000Y-16799000D02*
X68952000Y-16799000D01*
X55544000Y-16759000D02*
X68916000Y-16759000D01*
X55581000Y-16719000D02*
X68879000Y-16719000D01*
X55618000Y-16679000D02*
X68842000Y-16679000D01*
X55656000Y-16639000D02*
X68804000Y-16639000D01*
X55694000Y-16599000D02*
X68766000Y-16599000D01*
X55733000Y-16559000D02*
X68727000Y-16559000D01*
X55772000Y-16519000D02*
X68688000Y-16519000D01*
X55812000Y-16479000D02*
X68648000Y-16479000D01*
X55852000Y-16439000D02*
X68608000Y-16439000D01*
X55893000Y-16399000D02*
X68567000Y-16399000D01*
X55934000Y-16359000D02*
X68526000Y-16359000D01*
X55976000Y-16319000D02*
X68484000Y-16319000D01*
X56018000Y-16279000D02*
X68442000Y-16279000D01*
X56060000Y-16239000D02*
X68400000Y-16239000D01*
X56104000Y-16199000D02*
X68356000Y-16199000D01*
X56148000Y-16159000D02*
X68312000Y-16159000D01*
X56192000Y-16119000D02*
X68268000Y-16119000D01*
X56237000Y-16079000D02*
X68223000Y-16079000D01*
X56283000Y-16039000D02*
X68177000Y-16039000D01*
X56329000Y-15999000D02*
X68131000Y-15999000D01*
X56376000Y-15959000D02*
X68084000Y-15959000D01*
X56424000Y-15919000D02*
X68036000Y-15919000D01*
X56472000Y-15879000D02*
X67988000Y-15879000D01*
X56521000Y-15839000D02*
X67939000Y-15839000D01*
X56570000Y-15799000D02*
X67890000Y-15799000D01*
X56621000Y-15759000D02*
X67839000Y-15759000D01*
X56672000Y-15719000D02*
X67788000Y-15719000D01*
X56724000Y-15679000D02*
X67736000Y-15679000D01*
X56776000Y-15639000D02*
X67684000Y-15639000D01*
X56830000Y-15599000D02*
X67630000Y-15599000D01*
X56884000Y-15559000D02*
X67576000Y-15559000D01*
X56939000Y-15519000D02*
X67521000Y-15519000D01*
X56995000Y-15479000D02*
X67465000Y-15479000D01*
X57052000Y-15439000D02*
X67408000Y-15439000D01*
X57110000Y-15399000D02*
X67350000Y-15399000D01*
X57168000Y-15359000D02*
X67292000Y-15359000D01*
X57228000Y-15319000D02*
X67232000Y-15319000D01*
X57289000Y-15279000D02*
X67171000Y-15279000D01*
X57351000Y-15239000D02*
X67109000Y-15239000D01*
X57414000Y-15199000D02*
X67046000Y-15199000D01*
X57478000Y-15159000D02*
X66982000Y-15159000D01*
X57544000Y-15119000D02*
X66916000Y-15119000D01*
X57610000Y-15079000D02*
X66850000Y-15079000D01*
X57678000Y-15039000D02*
X66782000Y-15039000D01*
X57748000Y-14999000D02*
X66712000Y-14999000D01*
X57818000Y-14959000D02*
X66642000Y-14959000D01*
X57891000Y-14919000D02*
X66569000Y-14919000D01*
X57965000Y-14879000D02*
X66495000Y-14879000D01*
X58040000Y-14839000D02*
X66420000Y-14839000D01*
X58117000Y-14799000D02*
X66343000Y-14799000D01*
X58197000Y-14759000D02*
X66263000Y-14759000D01*
X58278000Y-14720000D02*
X66182000Y-14720000D01*
X58361000Y-14680000D02*
X66099000Y-14680000D01*
X58446000Y-14640000D02*
X66014000Y-14640000D01*
X58534000Y-14600000D02*
X65926000Y-14600000D01*
X58625000Y-14560000D02*
X65835000Y-14560000D01*
X58718000Y-14520000D02*
X65742000Y-14520000D01*
X58814000Y-14480000D02*
X65646000Y-14480000D01*
X58913000Y-14440000D02*
X65547000Y-14440000D01*
X59016000Y-14400000D02*
X65444000Y-14400000D01*
X59123000Y-14360000D02*
X65337000Y-14360000D01*
X59234000Y-14320000D02*
X65226000Y-14320000D01*
X59350000Y-14280000D02*
X65110000Y-14280000D01*
X59471000Y-14240000D02*
X64989000Y-14240000D01*
X59598000Y-14200000D02*
X64862000Y-14200000D01*
X59732000Y-14160000D02*
X64728000Y-14160000D01*
X59875000Y-14120000D02*
X64585000Y-14120000D01*
X60027000Y-14080000D02*
X64433000Y-14080000D01*
X60191000Y-14040000D02*
X64269000Y-14040000D01*
X60370000Y-14000000D02*
X64090000Y-14000000D01*
X60569000Y-13960000D02*
X63891000Y-13960000D01*
X60795000Y-13920000D02*
X63665000Y-13920000D01*
X61064000Y-13880000D02*
X63396000Y-13880000D01*
X61416000Y-13840000D02*
X63044000Y-13840000D01*
X62190000Y-13800000D02*
X62270000Y-13800000D01*
X57115000Y-32679440D02*
X57115000Y-30879440D01*
X56215000Y-31779440D02*
X58015000Y-31779440D01*
%TO.C,C2*%
X77805000Y-31779440D02*
X79605000Y-31779440D01*
X78705000Y-32679440D02*
X78705000Y-30879440D01*
X83780000Y-13800000D02*
X83860000Y-13800000D01*
X83006000Y-13840000D02*
X84634000Y-13840000D01*
X82654000Y-13880000D02*
X84986000Y-13880000D01*
X82385000Y-13920000D02*
X85255000Y-13920000D01*
X82159000Y-13960000D02*
X85481000Y-13960000D01*
X81960000Y-14000000D02*
X85680000Y-14000000D01*
X81781000Y-14040000D02*
X85859000Y-14040000D01*
X81617000Y-14080000D02*
X86023000Y-14080000D01*
X81465000Y-14120000D02*
X86175000Y-14120000D01*
X81322000Y-14160000D02*
X86318000Y-14160000D01*
X81188000Y-14200000D02*
X86452000Y-14200000D01*
X81061000Y-14240000D02*
X86579000Y-14240000D01*
X80940000Y-14280000D02*
X86700000Y-14280000D01*
X80824000Y-14320000D02*
X86816000Y-14320000D01*
X80713000Y-14360000D02*
X86927000Y-14360000D01*
X80606000Y-14400000D02*
X87034000Y-14400000D01*
X80503000Y-14440000D02*
X87137000Y-14440000D01*
X80404000Y-14480000D02*
X87236000Y-14480000D01*
X80308000Y-14520000D02*
X87332000Y-14520000D01*
X80215000Y-14560000D02*
X87425000Y-14560000D01*
X80124000Y-14600000D02*
X87516000Y-14600000D01*
X80036000Y-14640000D02*
X87604000Y-14640000D01*
X79951000Y-14680000D02*
X87689000Y-14680000D01*
X79868000Y-14720000D02*
X87772000Y-14720000D01*
X79787000Y-14759000D02*
X87853000Y-14759000D01*
X79707000Y-14799000D02*
X87933000Y-14799000D01*
X79630000Y-14839000D02*
X88010000Y-14839000D01*
X79555000Y-14879000D02*
X88085000Y-14879000D01*
X79481000Y-14919000D02*
X88159000Y-14919000D01*
X79408000Y-14959000D02*
X88232000Y-14959000D01*
X79338000Y-14999000D02*
X88302000Y-14999000D01*
X79268000Y-15039000D02*
X88372000Y-15039000D01*
X79200000Y-15079000D02*
X88440000Y-15079000D01*
X79134000Y-15119000D02*
X88506000Y-15119000D01*
X79068000Y-15159000D02*
X88572000Y-15159000D01*
X79004000Y-15199000D02*
X88636000Y-15199000D01*
X78941000Y-15239000D02*
X88699000Y-15239000D01*
X78879000Y-15279000D02*
X88761000Y-15279000D01*
X78818000Y-15319000D02*
X88822000Y-15319000D01*
X78758000Y-15359000D02*
X88882000Y-15359000D01*
X78700000Y-15399000D02*
X88940000Y-15399000D01*
X78642000Y-15439000D02*
X88998000Y-15439000D01*
X78585000Y-15479000D02*
X89055000Y-15479000D01*
X78529000Y-15519000D02*
X89111000Y-15519000D01*
X78474000Y-15559000D02*
X89166000Y-15559000D01*
X78420000Y-15599000D02*
X89220000Y-15599000D01*
X78366000Y-15639000D02*
X89274000Y-15639000D01*
X78314000Y-15679000D02*
X89326000Y-15679000D01*
X78262000Y-15719000D02*
X89378000Y-15719000D01*
X78211000Y-15759000D02*
X89429000Y-15759000D01*
X78160000Y-15799000D02*
X89480000Y-15799000D01*
X78111000Y-15839000D02*
X89529000Y-15839000D01*
X78062000Y-15879000D02*
X89578000Y-15879000D01*
X78014000Y-15919000D02*
X89626000Y-15919000D01*
X77966000Y-15959000D02*
X89674000Y-15959000D01*
X77919000Y-15999000D02*
X89721000Y-15999000D01*
X77873000Y-16039000D02*
X89767000Y-16039000D01*
X77827000Y-16079000D02*
X89813000Y-16079000D01*
X77782000Y-16119000D02*
X89858000Y-16119000D01*
X77738000Y-16159000D02*
X89902000Y-16159000D01*
X77694000Y-16199000D02*
X89946000Y-16199000D01*
X77650000Y-16239000D02*
X89990000Y-16239000D01*
X77608000Y-16279000D02*
X90032000Y-16279000D01*
X77566000Y-16319000D02*
X90074000Y-16319000D01*
X77524000Y-16359000D02*
X90116000Y-16359000D01*
X77483000Y-16399000D02*
X90157000Y-16399000D01*
X77442000Y-16439000D02*
X90198000Y-16439000D01*
X77402000Y-16479000D02*
X90238000Y-16479000D01*
X77362000Y-16519000D02*
X90278000Y-16519000D01*
X77323000Y-16559000D02*
X90317000Y-16559000D01*
X77284000Y-16599000D02*
X90356000Y-16599000D01*
X77246000Y-16639000D02*
X90394000Y-16639000D01*
X77208000Y-16679000D02*
X90432000Y-16679000D01*
X77171000Y-16719000D02*
X90469000Y-16719000D01*
X77134000Y-16759000D02*
X90506000Y-16759000D01*
X77098000Y-16799000D02*
X90542000Y-16799000D01*
X77062000Y-16839000D02*
X90578000Y-16839000D01*
X77026000Y-16879000D02*
X90614000Y-16879000D01*
X76991000Y-16919000D02*
X90649000Y-16919000D01*
X76956000Y-16959000D02*
X90684000Y-16959000D01*
X76922000Y-16999000D02*
X90718000Y-16999000D01*
X76888000Y-17039000D02*
X90752000Y-17039000D01*
X76855000Y-17079000D02*
X90785000Y-17079000D01*
X76821000Y-17119000D02*
X90819000Y-17119000D01*
X76789000Y-17159000D02*
X90851000Y-17159000D01*
X76756000Y-17199000D02*
X90884000Y-17199000D01*
X76724000Y-17239000D02*
X90916000Y-17239000D01*
X76693000Y-17279000D02*
X90947000Y-17279000D01*
X76661000Y-17319000D02*
X90979000Y-17319000D01*
X76630000Y-17359000D02*
X91010000Y-17359000D01*
X76600000Y-17399000D02*
X91040000Y-17399000D01*
X76570000Y-17439000D02*
X91070000Y-17439000D01*
X76540000Y-17479000D02*
X91100000Y-17479000D01*
X76510000Y-17519000D02*
X91130000Y-17519000D01*
X76481000Y-17559000D02*
X91159000Y-17559000D01*
X76452000Y-17599000D02*
X91188000Y-17599000D01*
X76423000Y-17639000D02*
X91217000Y-17639000D01*
X76395000Y-17679000D02*
X91245000Y-17679000D01*
X76367000Y-17719000D02*
X91273000Y-17719000D01*
X85260000Y-17759000D02*
X91300000Y-17759000D01*
X76340000Y-17759000D02*
X82380000Y-17759000D01*
X85260000Y-17799000D02*
X91328000Y-17799000D01*
X76312000Y-17799000D02*
X82380000Y-17799000D01*
X85260000Y-17839000D02*
X91355000Y-17839000D01*
X76285000Y-17839000D02*
X82380000Y-17839000D01*
X85260000Y-17879000D02*
X91381000Y-17879000D01*
X76259000Y-17879000D02*
X82380000Y-17879000D01*
X85260000Y-17919000D02*
X91408000Y-17919000D01*
X76232000Y-17919000D02*
X82380000Y-17919000D01*
X85260000Y-17959000D02*
X91434000Y-17959000D01*
X76206000Y-17959000D02*
X82380000Y-17959000D01*
X85260000Y-17999000D02*
X91460000Y-17999000D01*
X76180000Y-17999000D02*
X82380000Y-17999000D01*
X85260000Y-18039000D02*
X91485000Y-18039000D01*
X76155000Y-18039000D02*
X82380000Y-18039000D01*
X85260000Y-18079000D02*
X91510000Y-18079000D01*
X76130000Y-18079000D02*
X82380000Y-18079000D01*
X85260000Y-18119000D02*
X91535000Y-18119000D01*
X76105000Y-18119000D02*
X82380000Y-18119000D01*
X85260000Y-18159000D02*
X91560000Y-18159000D01*
X76080000Y-18159000D02*
X82380000Y-18159000D01*
X85260000Y-18199000D02*
X91584000Y-18199000D01*
X76056000Y-18199000D02*
X82380000Y-18199000D01*
X85260000Y-18239000D02*
X91608000Y-18239000D01*
X76032000Y-18239000D02*
X82380000Y-18239000D01*
X85260000Y-18279000D02*
X91632000Y-18279000D01*
X76008000Y-18279000D02*
X82380000Y-18279000D01*
X85260000Y-18319000D02*
X91655000Y-18319000D01*
X75985000Y-18319000D02*
X82380000Y-18319000D01*
X85260000Y-18359000D02*
X91679000Y-18359000D01*
X75961000Y-18359000D02*
X82380000Y-18359000D01*
X85260000Y-18399000D02*
X91702000Y-18399000D01*
X75938000Y-18399000D02*
X82380000Y-18399000D01*
X85260000Y-18439000D02*
X91724000Y-18439000D01*
X75916000Y-18439000D02*
X82380000Y-18439000D01*
X85260000Y-18479000D02*
X91747000Y-18479000D01*
X75893000Y-18479000D02*
X82380000Y-18479000D01*
X85260000Y-18519000D02*
X91769000Y-18519000D01*
X75871000Y-18519000D02*
X82380000Y-18519000D01*
X85260000Y-18559000D02*
X91791000Y-18559000D01*
X75849000Y-18559000D02*
X82380000Y-18559000D01*
X85260000Y-18599000D02*
X91812000Y-18599000D01*
X75828000Y-18599000D02*
X82380000Y-18599000D01*
X85260000Y-18639000D02*
X91834000Y-18639000D01*
X75806000Y-18639000D02*
X82380000Y-18639000D01*
X85260000Y-18679000D02*
X91855000Y-18679000D01*
X75785000Y-18679000D02*
X82380000Y-18679000D01*
X85260000Y-18719000D02*
X91876000Y-18719000D01*
X75764000Y-18719000D02*
X82380000Y-18719000D01*
X85260000Y-18759000D02*
X91896000Y-18759000D01*
X75744000Y-18759000D02*
X82380000Y-18759000D01*
X85260000Y-18799000D02*
X91917000Y-18799000D01*
X75723000Y-18799000D02*
X82380000Y-18799000D01*
X85260000Y-18839000D02*
X91937000Y-18839000D01*
X75703000Y-18839000D02*
X82380000Y-18839000D01*
X85260000Y-18879000D02*
X91957000Y-18879000D01*
X75683000Y-18879000D02*
X82380000Y-18879000D01*
X85260000Y-18919000D02*
X91976000Y-18919000D01*
X75664000Y-18919000D02*
X82380000Y-18919000D01*
X85260000Y-18959000D02*
X91996000Y-18959000D01*
X75644000Y-18959000D02*
X82380000Y-18959000D01*
X85260000Y-18999000D02*
X92015000Y-18999000D01*
X75625000Y-18999000D02*
X82380000Y-18999000D01*
X85260000Y-19039000D02*
X92034000Y-19039000D01*
X75606000Y-19039000D02*
X82380000Y-19039000D01*
X85260000Y-19079000D02*
X92053000Y-19079000D01*
X75587000Y-19079000D02*
X82380000Y-19079000D01*
X85260000Y-19119000D02*
X92071000Y-19119000D01*
X75569000Y-19119000D02*
X82380000Y-19119000D01*
X85260000Y-19159000D02*
X92089000Y-19159000D01*
X75551000Y-19159000D02*
X82380000Y-19159000D01*
X85260000Y-19199000D02*
X92107000Y-19199000D01*
X75533000Y-19199000D02*
X82380000Y-19199000D01*
X85260000Y-19239000D02*
X92125000Y-19239000D01*
X75515000Y-19239000D02*
X82380000Y-19239000D01*
X85260000Y-19279000D02*
X92143000Y-19279000D01*
X75497000Y-19279000D02*
X82380000Y-19279000D01*
X85260000Y-19319000D02*
X92160000Y-19319000D01*
X75480000Y-19319000D02*
X82380000Y-19319000D01*
X85260000Y-19359000D02*
X92177000Y-19359000D01*
X75463000Y-19359000D02*
X82380000Y-19359000D01*
X85260000Y-19399000D02*
X92194000Y-19399000D01*
X75446000Y-19399000D02*
X82380000Y-19399000D01*
X85260000Y-19439000D02*
X92210000Y-19439000D01*
X75430000Y-19439000D02*
X82380000Y-19439000D01*
X85260000Y-19479000D02*
X92227000Y-19479000D01*
X75413000Y-19479000D02*
X82380000Y-19479000D01*
X85260000Y-19519000D02*
X92243000Y-19519000D01*
X75397000Y-19519000D02*
X82380000Y-19519000D01*
X85260000Y-19559000D02*
X92259000Y-19559000D01*
X75381000Y-19559000D02*
X82380000Y-19559000D01*
X85260000Y-19599000D02*
X92275000Y-19599000D01*
X75365000Y-19599000D02*
X82380000Y-19599000D01*
X85260000Y-19639000D02*
X92290000Y-19639000D01*
X75350000Y-19639000D02*
X82380000Y-19639000D01*
X85260000Y-19679000D02*
X92306000Y-19679000D01*
X75334000Y-19679000D02*
X82380000Y-19679000D01*
X85260000Y-19719000D02*
X92321000Y-19719000D01*
X75319000Y-19719000D02*
X82380000Y-19719000D01*
X85260000Y-19759000D02*
X92336000Y-19759000D01*
X75304000Y-19759000D02*
X82380000Y-19759000D01*
X85260000Y-19799000D02*
X92350000Y-19799000D01*
X75290000Y-19799000D02*
X82380000Y-19799000D01*
X85260000Y-19839000D02*
X92365000Y-19839000D01*
X75275000Y-19839000D02*
X82380000Y-19839000D01*
X85260000Y-19879000D02*
X92379000Y-19879000D01*
X75261000Y-19879000D02*
X82380000Y-19879000D01*
X85260000Y-19919000D02*
X92393000Y-19919000D01*
X75247000Y-19919000D02*
X82380000Y-19919000D01*
X85260000Y-19959000D02*
X92407000Y-19959000D01*
X75233000Y-19959000D02*
X82380000Y-19959000D01*
X85260000Y-19999000D02*
X92420000Y-19999000D01*
X75220000Y-19999000D02*
X82380000Y-19999000D01*
X85260000Y-20039000D02*
X92434000Y-20039000D01*
X75206000Y-20039000D02*
X82380000Y-20039000D01*
X85260000Y-20079000D02*
X92447000Y-20079000D01*
X75193000Y-20079000D02*
X82380000Y-20079000D01*
X85260000Y-20119000D02*
X92460000Y-20119000D01*
X75180000Y-20119000D02*
X82380000Y-20119000D01*
X85260000Y-20159000D02*
X92473000Y-20159000D01*
X75167000Y-20159000D02*
X82380000Y-20159000D01*
X85260000Y-20199000D02*
X92485000Y-20199000D01*
X75155000Y-20199000D02*
X82380000Y-20199000D01*
X85260000Y-20239000D02*
X92498000Y-20239000D01*
X75142000Y-20239000D02*
X82380000Y-20239000D01*
X85260000Y-20279000D02*
X92510000Y-20279000D01*
X75130000Y-20279000D02*
X82380000Y-20279000D01*
X85260000Y-20319000D02*
X92522000Y-20319000D01*
X75118000Y-20319000D02*
X82380000Y-20319000D01*
X85260000Y-20359000D02*
X92534000Y-20359000D01*
X75106000Y-20359000D02*
X82380000Y-20359000D01*
X85260000Y-20399000D02*
X92545000Y-20399000D01*
X75095000Y-20399000D02*
X82380000Y-20399000D01*
X85260000Y-20439000D02*
X92557000Y-20439000D01*
X75083000Y-20439000D02*
X82380000Y-20439000D01*
X85260000Y-20479000D02*
X92568000Y-20479000D01*
X75072000Y-20479000D02*
X82380000Y-20479000D01*
X85260000Y-20519000D02*
X92579000Y-20519000D01*
X75061000Y-20519000D02*
X82380000Y-20519000D01*
X85260000Y-20559000D02*
X92590000Y-20559000D01*
X75050000Y-20559000D02*
X82380000Y-20559000D01*
X85260000Y-20599000D02*
X92600000Y-20599000D01*
X75040000Y-20599000D02*
X82380000Y-20599000D01*
X75029000Y-20639000D02*
X92611000Y-20639000D01*
X75019000Y-20679000D02*
X92621000Y-20679000D01*
X75009000Y-20719000D02*
X92631000Y-20719000D01*
X74999000Y-20759000D02*
X92641000Y-20759000D01*
X74989000Y-20799000D02*
X92651000Y-20799000D01*
X74980000Y-20839000D02*
X92660000Y-20839000D01*
X74971000Y-20879000D02*
X92669000Y-20879000D01*
X74962000Y-20919000D02*
X92678000Y-20919000D01*
X74953000Y-20959000D02*
X92687000Y-20959000D01*
X74944000Y-20999000D02*
X92696000Y-20999000D01*
X74935000Y-21039000D02*
X92705000Y-21039000D01*
X74927000Y-21079000D02*
X92713000Y-21079000D01*
X74919000Y-21119000D02*
X92721000Y-21119000D01*
X74911000Y-21159000D02*
X92729000Y-21159000D01*
X74903000Y-21199000D02*
X92737000Y-21199000D01*
X74896000Y-21239000D02*
X92744000Y-21239000D01*
X74888000Y-21279000D02*
X92752000Y-21279000D01*
X74881000Y-21319000D02*
X92759000Y-21319000D01*
X74874000Y-21359000D02*
X92766000Y-21359000D01*
X74867000Y-21399000D02*
X92773000Y-21399000D01*
X74860000Y-21439000D02*
X92780000Y-21439000D01*
X74854000Y-21479000D02*
X92786000Y-21479000D01*
X74848000Y-21519000D02*
X92792000Y-21519000D01*
X74841000Y-21559000D02*
X92799000Y-21559000D01*
X74836000Y-21599000D02*
X92804000Y-21599000D01*
X74830000Y-21639000D02*
X92810000Y-21639000D01*
X74824000Y-21679000D02*
X92816000Y-21679000D01*
X74819000Y-21719000D02*
X92821000Y-21719000D01*
X74814000Y-21759000D02*
X92826000Y-21759000D01*
X74809000Y-21799000D02*
X92831000Y-21799000D01*
X74804000Y-21839000D02*
X92836000Y-21839000D01*
X74799000Y-21879000D02*
X92841000Y-21879000D01*
X74794000Y-21919000D02*
X92846000Y-21919000D01*
X74790000Y-21959000D02*
X92850000Y-21959000D01*
X74786000Y-21999000D02*
X92854000Y-21999000D01*
X74782000Y-22039000D02*
X92858000Y-22039000D01*
X74778000Y-22079000D02*
X92862000Y-22079000D01*
X74775000Y-22119000D02*
X92865000Y-22119000D01*
X74771000Y-22159000D02*
X92869000Y-22159000D01*
X74768000Y-22199000D02*
X92872000Y-22199000D01*
X74765000Y-22240000D02*
X92875000Y-22240000D01*
X74762000Y-22280000D02*
X92878000Y-22280000D01*
X74759000Y-22320000D02*
X92881000Y-22320000D01*
X74757000Y-22360000D02*
X92883000Y-22360000D01*
X74754000Y-22400000D02*
X92886000Y-22400000D01*
X74752000Y-22440000D02*
X92888000Y-22440000D01*
X74750000Y-22480000D02*
X92890000Y-22480000D01*
X74748000Y-22520000D02*
X92892000Y-22520000D01*
X74747000Y-22560000D02*
X92893000Y-22560000D01*
X74745000Y-22600000D02*
X92895000Y-22600000D01*
X74744000Y-22640000D02*
X92896000Y-22640000D01*
X74743000Y-22680000D02*
X92897000Y-22680000D01*
X74742000Y-22720000D02*
X92898000Y-22720000D01*
X74741000Y-22760000D02*
X92899000Y-22760000D01*
X74740000Y-22800000D02*
X92900000Y-22800000D01*
X74740000Y-22840000D02*
X92900000Y-22840000D01*
X74740000Y-22880000D02*
X92900000Y-22880000D01*
X74739000Y-22920000D02*
X92901000Y-22920000D01*
X92940000Y-22920000D02*
G75*
G03*
X92940000Y-22920000I-9120000J0D01*
G01*
%TO.C,D1*%
X44085000Y-38280000D02*
X44085000Y-32840000D01*
X43845000Y-38280000D02*
X43845000Y-32840000D01*
X43965000Y-38280000D02*
X43965000Y-32840000D01*
X34860000Y-35560000D02*
X35770000Y-35560000D01*
X46420000Y-35560000D02*
X45510000Y-35560000D01*
X35770000Y-38280000D02*
X45510000Y-38280000D01*
X35770000Y-32840000D02*
X35770000Y-38280000D01*
X45510000Y-32840000D02*
X35770000Y-32840000D01*
X45510000Y-38280000D02*
X45510000Y-32840000D01*
%TO.C,D2*%
X35770000Y-40460000D02*
X35770000Y-45900000D01*
X35770000Y-45900000D02*
X45510000Y-45900000D01*
X45510000Y-45900000D02*
X45510000Y-40460000D01*
X45510000Y-40460000D02*
X35770000Y-40460000D01*
X34860000Y-43180000D02*
X35770000Y-43180000D01*
X46420000Y-43180000D02*
X45510000Y-43180000D01*
X37315000Y-40460000D02*
X37315000Y-45900000D01*
X37435000Y-40460000D02*
X37435000Y-45900000D01*
X37195000Y-40460000D02*
X37195000Y-45900000D01*
%TO.C,D3*%
X44085000Y-29390000D02*
X44085000Y-23950000D01*
X43845000Y-29390000D02*
X43845000Y-23950000D01*
X43965000Y-29390000D02*
X43965000Y-23950000D01*
X34860000Y-26670000D02*
X35770000Y-26670000D01*
X46420000Y-26670000D02*
X45510000Y-26670000D01*
X35770000Y-29390000D02*
X45510000Y-29390000D01*
X35770000Y-23950000D02*
X35770000Y-29390000D01*
X45510000Y-23950000D02*
X35770000Y-23950000D01*
X45510000Y-29390000D02*
X45510000Y-23950000D01*
%TO.C,D4*%
X35770000Y-15060000D02*
X35770000Y-20500000D01*
X35770000Y-20500000D02*
X45510000Y-20500000D01*
X45510000Y-20500000D02*
X45510000Y-15060000D01*
X45510000Y-15060000D02*
X35770000Y-15060000D01*
X34860000Y-17780000D02*
X35770000Y-17780000D01*
X46420000Y-17780000D02*
X45510000Y-17780000D01*
X37315000Y-15060000D02*
X37315000Y-20500000D01*
X37435000Y-15060000D02*
X37435000Y-20500000D01*
X37195000Y-15060000D02*
X37195000Y-20500000D01*
%TO.C,D5*%
X57360000Y-40460000D02*
X57360000Y-45900000D01*
X57360000Y-45900000D02*
X67100000Y-45900000D01*
X67100000Y-45900000D02*
X67100000Y-40460000D01*
X67100000Y-40460000D02*
X57360000Y-40460000D01*
X56450000Y-43180000D02*
X57360000Y-43180000D01*
X68010000Y-43180000D02*
X67100000Y-43180000D01*
X58905000Y-40460000D02*
X58905000Y-45900000D01*
X59025000Y-40460000D02*
X59025000Y-45900000D01*
X58785000Y-40460000D02*
X58785000Y-45900000D01*
%TO.C,F1*%
X25230000Y-35810000D02*
X22070000Y-35810000D01*
X18570000Y-35810000D02*
X15410000Y-35810000D01*
X18570000Y-58530000D02*
X15410000Y-58530000D01*
X15410000Y-58530000D02*
X15410000Y-35810000D01*
X25230000Y-58530000D02*
X25230000Y-35810000D01*
X25230000Y-58530000D02*
X22070000Y-58530000D01*
%TO.C,F2*%
X31640000Y-59520000D02*
X31640000Y-56360000D01*
X31640000Y-59520000D02*
X54360000Y-59520000D01*
X31640000Y-49700000D02*
X54360000Y-49700000D01*
X31640000Y-52860000D02*
X31640000Y-49700000D01*
X54360000Y-52860000D02*
X54360000Y-49700000D01*
X54360000Y-59520000D02*
X54360000Y-56360000D01*
%TO.C,J1*%
X14020000Y-30590000D02*
X26620000Y-30590000D01*
X26620000Y-30590000D02*
X26620000Y-15190000D01*
X26620000Y-15190000D02*
X25670000Y-15190000D01*
X25670000Y-15190000D02*
X25970000Y-14690000D01*
X25970000Y-14690000D02*
X23970000Y-14690000D01*
X23970000Y-14690000D02*
X24220000Y-15190000D01*
X24220000Y-15190000D02*
X18820000Y-15190000D01*
X18820000Y-15190000D02*
X19070000Y-14690000D01*
X19070000Y-14690000D02*
X14020000Y-14690000D01*
X14020000Y-14690000D02*
X14020000Y-30590000D01*
%TO.C,J2*%
X95140000Y-15290000D02*
X95140000Y-27890000D01*
X95140000Y-27890000D02*
X105490000Y-27890000D01*
X105490000Y-27890000D02*
X105490000Y-26940000D01*
X105490000Y-26940000D02*
X105990000Y-27190000D01*
X105990000Y-27190000D02*
X105990000Y-25290000D01*
X105990000Y-25290000D02*
X105990000Y-25240000D01*
X105990000Y-25240000D02*
X105490000Y-25490000D01*
X105490000Y-25490000D02*
X105490000Y-20090000D01*
X105490000Y-20090000D02*
X105990000Y-20390000D01*
X105990000Y-20390000D02*
X105990000Y-15290000D01*
X105990000Y-15290000D02*
X95140000Y-15290000D01*
%TO.C,R1*%
X68300000Y-37930000D02*
X68300000Y-33190000D01*
X68300000Y-33190000D02*
X56160000Y-33190000D01*
X56160000Y-33190000D02*
X56160000Y-37930000D01*
X56160000Y-37930000D02*
X68300000Y-37930000D01*
X68410000Y-35560000D02*
X68300000Y-35560000D01*
X56050000Y-35560000D02*
X56160000Y-35560000D01*
%TO.C,J4*%
D11*
X81326666Y-51642380D02*
X81326666Y-52356666D01*
X81279047Y-52499523D01*
X81183809Y-52594761D01*
X81040952Y-52642380D01*
X80945714Y-52642380D01*
X82231428Y-51975714D02*
X82231428Y-52642380D01*
X81993333Y-51594761D02*
X81755238Y-52309047D01*
X82374285Y-52309047D01*
%TO.C,J3*%
X82216666Y-37672380D02*
X82216666Y-38386666D01*
X82169047Y-38529523D01*
X82073809Y-38624761D01*
X81930952Y-38672380D01*
X81835714Y-38672380D01*
X82597619Y-37672380D02*
X83216666Y-37672380D01*
X82883333Y-38053333D01*
X83026190Y-38053333D01*
X83121428Y-38100952D01*
X83169047Y-38148571D01*
X83216666Y-38243809D01*
X83216666Y-38481904D01*
X83169047Y-38577142D01*
X83121428Y-38624761D01*
X83026190Y-38672380D01*
X82740476Y-38672380D01*
X82645238Y-38624761D01*
X82597619Y-38577142D01*
%TO.C,C1*%
X52337142Y-23086666D02*
X52384761Y-23134285D01*
X52432380Y-23277142D01*
X52432380Y-23372380D01*
X52384761Y-23515238D01*
X52289523Y-23610476D01*
X52194285Y-23658095D01*
X52003809Y-23705714D01*
X51860952Y-23705714D01*
X51670476Y-23658095D01*
X51575238Y-23610476D01*
X51480000Y-23515238D01*
X51432380Y-23372380D01*
X51432380Y-23277142D01*
X51480000Y-23134285D01*
X51527619Y-23086666D01*
X52432380Y-22134285D02*
X52432380Y-22705714D01*
X52432380Y-22420000D02*
X51432380Y-22420000D01*
X51575238Y-22515238D01*
X51670476Y-22610476D01*
X51718095Y-22705714D01*
%TO.C,C2*%
X73927142Y-23086666D02*
X73974761Y-23134285D01*
X74022380Y-23277142D01*
X74022380Y-23372380D01*
X73974761Y-23515238D01*
X73879523Y-23610476D01*
X73784285Y-23658095D01*
X73593809Y-23705714D01*
X73450952Y-23705714D01*
X73260476Y-23658095D01*
X73165238Y-23610476D01*
X73070000Y-23515238D01*
X73022380Y-23372380D01*
X73022380Y-23277142D01*
X73070000Y-23134285D01*
X73117619Y-23086666D01*
X73117619Y-22705714D02*
X73070000Y-22658095D01*
X73022380Y-22562857D01*
X73022380Y-22324761D01*
X73070000Y-22229523D01*
X73117619Y-22181904D01*
X73212857Y-22134285D01*
X73308095Y-22134285D01*
X73450952Y-22181904D01*
X74022380Y-22753333D01*
X74022380Y-22134285D01*
%TO.C,D1*%
X39901904Y-39732380D02*
X39901904Y-38732380D01*
X40140000Y-38732380D01*
X40282857Y-38780000D01*
X40378095Y-38875238D01*
X40425714Y-38970476D01*
X40473333Y-39160952D01*
X40473333Y-39303809D01*
X40425714Y-39494285D01*
X40378095Y-39589523D01*
X40282857Y-39684761D01*
X40140000Y-39732380D01*
X39901904Y-39732380D01*
X41425714Y-39732380D02*
X40854285Y-39732380D01*
X41140000Y-39732380D02*
X41140000Y-38732380D01*
X41044761Y-38875238D01*
X40949523Y-38970476D01*
X40854285Y-39018095D01*
X47998095Y-38612380D02*
X47998095Y-37612380D01*
X48569523Y-38612380D02*
X48140952Y-38040952D01*
X48569523Y-37612380D02*
X47998095Y-38183809D01*
%TO.C,D2*%
X39901904Y-39912380D02*
X39901904Y-38912380D01*
X40140000Y-38912380D01*
X40282857Y-38960000D01*
X40378095Y-39055238D01*
X40425714Y-39150476D01*
X40473333Y-39340952D01*
X40473333Y-39483809D01*
X40425714Y-39674285D01*
X40378095Y-39769523D01*
X40282857Y-39864761D01*
X40140000Y-39912380D01*
X39901904Y-39912380D01*
X40854285Y-39007619D02*
X40901904Y-38960000D01*
X40997142Y-38912380D01*
X41235238Y-38912380D01*
X41330476Y-38960000D01*
X41378095Y-39007619D01*
X41425714Y-39102857D01*
X41425714Y-39198095D01*
X41378095Y-39340952D01*
X40806666Y-39912380D01*
X41425714Y-39912380D01*
X32758095Y-41032380D02*
X32758095Y-40032380D01*
X33329523Y-41032380D02*
X32900952Y-40460952D01*
X33329523Y-40032380D02*
X32758095Y-40603809D01*
%TO.C,D3*%
X39901904Y-30842380D02*
X39901904Y-29842380D01*
X40140000Y-29842380D01*
X40282857Y-29890000D01*
X40378095Y-29985238D01*
X40425714Y-30080476D01*
X40473333Y-30270952D01*
X40473333Y-30413809D01*
X40425714Y-30604285D01*
X40378095Y-30699523D01*
X40282857Y-30794761D01*
X40140000Y-30842380D01*
X39901904Y-30842380D01*
X40806666Y-29842380D02*
X41425714Y-29842380D01*
X41092380Y-30223333D01*
X41235238Y-30223333D01*
X41330476Y-30270952D01*
X41378095Y-30318571D01*
X41425714Y-30413809D01*
X41425714Y-30651904D01*
X41378095Y-30747142D01*
X41330476Y-30794761D01*
X41235238Y-30842380D01*
X40949523Y-30842380D01*
X40854285Y-30794761D01*
X40806666Y-30747142D01*
X47998095Y-29722380D02*
X47998095Y-28722380D01*
X48569523Y-29722380D02*
X48140952Y-29150952D01*
X48569523Y-28722380D02*
X47998095Y-29293809D01*
%TO.C,D4*%
X39901904Y-14512380D02*
X39901904Y-13512380D01*
X40140000Y-13512380D01*
X40282857Y-13560000D01*
X40378095Y-13655238D01*
X40425714Y-13750476D01*
X40473333Y-13940952D01*
X40473333Y-14083809D01*
X40425714Y-14274285D01*
X40378095Y-14369523D01*
X40282857Y-14464761D01*
X40140000Y-14512380D01*
X39901904Y-14512380D01*
X41330476Y-13845714D02*
X41330476Y-14512380D01*
X41092380Y-13464761D02*
X40854285Y-14179047D01*
X41473333Y-14179047D01*
X32758095Y-15632380D02*
X32758095Y-14632380D01*
X33329523Y-15632380D02*
X32900952Y-15060952D01*
X33329523Y-14632380D02*
X32758095Y-15203809D01*
%TO.C,D5*%
X61491904Y-39912380D02*
X61491904Y-38912380D01*
X61730000Y-38912380D01*
X61872857Y-38960000D01*
X61968095Y-39055238D01*
X62015714Y-39150476D01*
X62063333Y-39340952D01*
X62063333Y-39483809D01*
X62015714Y-39674285D01*
X61968095Y-39769523D01*
X61872857Y-39864761D01*
X61730000Y-39912380D01*
X61491904Y-39912380D01*
X62968095Y-38912380D02*
X62491904Y-38912380D01*
X62444285Y-39388571D01*
X62491904Y-39340952D01*
X62587142Y-39293333D01*
X62825238Y-39293333D01*
X62920476Y-39340952D01*
X62968095Y-39388571D01*
X63015714Y-39483809D01*
X63015714Y-39721904D01*
X62968095Y-39817142D01*
X62920476Y-39864761D01*
X62825238Y-39912380D01*
X62587142Y-39912380D01*
X62491904Y-39864761D01*
X62444285Y-39817142D01*
X54348095Y-41032380D02*
X54348095Y-40032380D01*
X54919523Y-41032380D02*
X54490952Y-40460952D01*
X54919523Y-40032380D02*
X54348095Y-40603809D01*
%TO.C,F1*%
X14248571Y-47503333D02*
X14248571Y-47836666D01*
X14772380Y-47836666D02*
X13772380Y-47836666D01*
X13772380Y-47360476D01*
X14772380Y-46455714D02*
X14772380Y-47027142D01*
X14772380Y-46741428D02*
X13772380Y-46741428D01*
X13915238Y-46836666D01*
X14010476Y-46931904D01*
X14058095Y-47027142D01*
%TO.C,F2*%
X42666666Y-48538571D02*
X42333333Y-48538571D01*
X42333333Y-49062380D02*
X42333333Y-48062380D01*
X42809523Y-48062380D01*
X43142857Y-48157619D02*
X43190476Y-48110000D01*
X43285714Y-48062380D01*
X43523809Y-48062380D01*
X43619047Y-48110000D01*
X43666666Y-48157619D01*
X43714285Y-48252857D01*
X43714285Y-48348095D01*
X43666666Y-48490952D01*
X43095238Y-49062380D01*
X43714285Y-49062380D01*
%TO.C,J1*%
X12672380Y-23273333D02*
X13386666Y-23273333D01*
X13529523Y-23320952D01*
X13624761Y-23416190D01*
X13672380Y-23559047D01*
X13672380Y-23654285D01*
X13672380Y-22273333D02*
X13672380Y-22844761D01*
X13672380Y-22559047D02*
X12672380Y-22559047D01*
X12815238Y-22654285D01*
X12910476Y-22749523D01*
X12958095Y-22844761D01*
%TO.C,J2*%
X95536666Y-14052380D02*
X95536666Y-14766666D01*
X95489047Y-14909523D01*
X95393809Y-15004761D01*
X95250952Y-15052380D01*
X95155714Y-15052380D01*
X95965238Y-14147619D02*
X96012857Y-14100000D01*
X96108095Y-14052380D01*
X96346190Y-14052380D01*
X96441428Y-14100000D01*
X96489047Y-14147619D01*
X96536666Y-14242857D01*
X96536666Y-14338095D01*
X96489047Y-14480952D01*
X95917619Y-15052380D01*
X96536666Y-15052380D01*
%TO.C,R1*%
X62063333Y-39382380D02*
X61730000Y-38906190D01*
X61491904Y-39382380D02*
X61491904Y-38382380D01*
X61872857Y-38382380D01*
X61968095Y-38430000D01*
X62015714Y-38477619D01*
X62063333Y-38572857D01*
X62063333Y-38715714D01*
X62015714Y-38810952D01*
X61968095Y-38858571D01*
X61872857Y-38906190D01*
X61491904Y-38906190D01*
X63015714Y-39382380D02*
X62444285Y-39382380D01*
X62730000Y-39382380D02*
X62730000Y-38382380D01*
X62634761Y-38525238D01*
X62539523Y-38620476D01*
X62444285Y-38668095D01*
%TD*%
M02*
